<svg width="16px" height="16px" viewBox="0 0 16 16" version="1.1" xmlns="http://www.w3.org/2000/svg">
	<path d="M9.60597029,9 L3,9 C2.44771525,9 2,8.55228475 2,8 C2,7.44771525 2.44771525,7 3,7 L9.60084167,7 L8.00463,5.41420598 C7.61282927,5.02496232 7.61075634,4.39180074 8,4 C8.38924366,3.60819926 9.02240524,3.60612634 9.41420598,3.99537 L12.7400884,7.29954607 L12.7266908,7.3130317 C12.8961118,7.49218658 13,7.7339611 13,8 C13,8.26599393 12.896147,8.50773168 12.7267767,8.68687744 L12.7315502,8.69161983 L9.42737414,12.0175022 C9.03813048,12.409303 8.4049689,12.4113759 8.01316816,12.0221322 C7.62136742,11.6328886 7.6192945,10.999727 8.00853816,10.6079262 L9.60597029,9 L9.60597029,9 Z"></path>
</svg>