<svg xmlns="http://www.w3.org/2000/svg" width="8" height="8" viewBox="0 0 8 8">
  <path d="M91.7525469,81.8075548 L89.8574132,80.1960418 C89.6613994,80.0195404 89.4518846,79.9390397 89.2828727,79.9465398 C89.7304043,79.4225356 90.0004233,78.7430301 90.0004233,78.0000241 C90.0004233,76.3430108 88.6573286,75 87.0002117,75 C85.3430948,75 84,76.3430108 84,78.0000241 C84,79.6570375 85.3430948,81.0000483 87.0002117,81.0000483 C87.7432641,81.0000483 88.422812,80.7300461 88.946849,80.2825425 C88.9388484,80.4515439 89.0198541,80.6610456 89.1963666,80.8570471 L90.8079803,82.7520624 C91.0839998,83.0585648 91.5345315,83.0845651 91.8095509,82.8095628 C92.0845703,82.5345606 92.0585685,82.083557 91.7520469,81.8080548 L91.7525469,81.8075548 Z M87.0002117,79.9995402 C85.8956337,79.9995402 85.0000706,79.104033 85.0000706,77.9995241 C85.0000706,76.8950152 85.8956337,75.999508 87.0002117,75.999508 C88.1047896,75.999508 89.0003528,76.8950152 89.0003528,77.9995241 C89.0003528,79.104033 88.1047896,79.9995402 87.0002117,79.9995402 Z" transform="translate(-84 -75)"/>
</svg>
