<svg viewBox="0 0 1000 1000" xmlns="http://www.w3.org/2000/svg"><title/><path d="M499.5 842.8c-188.9 0-342.6-153.9-342.6-342.9S310.6 157 499.5 157c188.9 0 342.6 153.8 342.6 342.9S688.4 842.8 499.5 842.8zm385.8-342.9l111.2-124.8a9.8 9.8 0 0 0 2.2-9.1 9.8 9.8 0 0 0-6.4-6.7l-158.7-52.4 34-163.8a9.8 9.8 0 0 0-2.7-8.9c-2.3-2.4-5.8-3.4-8.9-2.7l-163.6 34.1L640 6.7a9.8 9.8 0 0 0-6.7-6.4 9.7 9.7 0 0 0-9.1 2.2L499.5 113.9 374.8 2.5a9.8 9.8 0 0 0-9-2.2 9.8 9.8 0 0 0-6.8 6.4l-52.4 158.9L143 131.5a9.8 9.8 0 0 0-8.9 2.7 9.8 9.8 0 0 0-2.7 8.9l34.1 163.8L6.7 359.3A9.8 9.8 0 0 0 .3 366a9.8 9.8 0 0 0 2.2 9.1l111.3 124.8L2.5 624.7a9.8 9.8 0 0 0-2.2 9 9.8 9.8 0 0 0 6.4 6.8l158.8 52.4-34.1 163.8a9.8 9.8 0 0 0 2.7 8.9c2.3 2.3 5.8 3.3 8.9 2.6l163.6-34L359 993a9.8 9.8 0 0 0 15.8 4.2l124.7-111.3 124.7 111.3a9.7 9.7 0 0 0 9.1 2.2 9.8 9.8 0 0 0 6.7-6.4l52.4-158.8 163.6 34a10 10 0 0 0 8.9-2.6 9.7 9.7 0 0 0 2.7-9l-34-163.7 158.7-52.4a9.8 9.8 0 0 0 6.4-6.8 9.8 9.8 0 0 0-2.2-9L885.3 499.9zM499.5 193.4c-168.9 0-306.3 137.5-306.3 306.5s137.4 306.5 306.3 306.5 306.3-137.5 306.3-306.5-137.4-306.5-306.3-306.5" fill="#010202" fill-rule="evenodd"/></svg>