<svg xmlns="http://www.w3.org/2000/svg" viewBox="0 0 1000 1000"><path d="M791.7 0H208.3A208.3 208.3 0 0 0 0 208.3v583.4A208.3 208.3 0 0 0 208.3 1000h583.4A208.3 208.3 0 0 0 1000 791.7V208.3A208.3 208.3 0 0 0 791.7 0zm-5.9 384.9c8.8 192.4-134.7 406.9-388.7 406.9a386.9 386.9 0 0 1-209.6-61.5A275.2 275.2 0 0 0 390 673.6a136.9 136.9 0 0 1-127.8-95 137.5 137.5 0 0 0 61.8-2.3c-65.9-13.2-111.2-72.5-109.8-135.8 18.5 10.3 39.6 16.4 62 17.1A137.1 137.1 0 0 1 233.8 275a388.3 388.3 0 0 0 282 142.9 136.9 136.9 0 0 1 233-124.7 274.3 274.3 0 0 0 87-33.2 137.3 137.3 0 0 1-60.2 75.7 274.1 274.1 0 0 0 78.6-21.5 277.5 277.5 0 0 1-68.4 70.7z"/></svg>