<svg viewBox="0 0 1000 1000" xmlns="http://www.w3.org/2000/svg"><title/><path d="M112.1 805.5h304.7V619.3L112.1 805.5zm471.4 0h304.8L583.5 619.3v186.2zM.3 601.9v135.3l221.5-135.3H.3zm333.2 0L.3 805.5h74.5l333.3-203.6h-74.6zm333.3 0L1000 805.5V760L741.3 601.9h-74.5zm111.8 0L1000 737.2V601.9H778.5zM.3 398.2h221.5L.3 262.9v135.3zm778.2 0H1000V262.9L778.5 398.2zM.3 194.6v45.5L259 398.2h74.5L.3 194.6zm111.8 0l304.7 186.2V194.6H112.1zm338.1 0V439H.3v122.2h449.9v244.3h99.9V561.1H1000V439H550.1V194.6h-99.9zm133.3 0v186.2l304.8-186.2H583.5zm342 0L592.3 398.2h74.5L1000 194.6h-74.5z" fill-rule="evenodd"/></svg>