<svg width="308" height="70" fill="none" xmlns="http://www.w3.org/2000/svg"><mask id="a" maskUnits="userSpaceOnUse" x="0" y="0" width="64" height="70"><path d="M31.992 70H.06V.884h63.863V70H31.992z" fill="#fff"/></mask><g mask="url(#a)" fill-rule="evenodd" clip-rule="evenodd"><path d="M61.979 28.099c-.011-.207-.165-.347-.182-.6.095-.025.14.065.191.141-.02.017.004.052-.046.052.024.059.089.019.113.073-.049-.005-.015.078.009.064 0 .05-.057.011-.076.014.1.081.136.163.205.337-.094.03-.154-.031-.214-.081zM26.326 15.888c-.056-.2-.236-.303-.307-.546.087-.045.15.033.217.096-.016.021.015.051-.034.061.036.052.091 0 .126.047-.049.005.002.079.022.06.012.05-.052.023-.07.03.114.059.168.131.273.285-.086.051-.159.004-.227-.033zm5.827.764c-.056-.199-.236-.303-.307-.546.088-.045.151.034.217.097-.016.021.015.05-.034.06.036.052.091 0 .126.047-.049.005.002.08.023.061.011.048-.052.023-.071.029.115.058.168.131.273.286-.086.05-.158.002-.227-.034zM57.02 54.53c-.001.05-.015.083-.026.026.029-.037 0-.117.011-.163-.017-.057-.051-.087-.048-.21-.007-.051-.011.013-.02-.025-.009-.043-.022-.097-.024-.135-.052-.072-.08-.359-.123-.462a.624.624 0 00-.075-.239 7.185 7.185 0 00-.218-.91.379.379 0 01.009-.062c-.021.015-.039-.083-.07-.16.001-.088-.022-.235-.049-.254-.014-.147-.054-.302-.089-.31a.251.251 0 01-.005-.093c-.013-.024-.02-.051-.024.004-.007-.064-.013-.059-.027-.137.006-.023.013-.001.018-.043-.025-.121-.05-.225-.055-.352-.034-.12-.064-.021-.094-.141a.457.457 0 01.018-.066c-.012-.028-.021.005-.03.002-.003-.027-.002-.048-.005-.075-.013-.036-.023.022-.033.022-.008-.042-.007-.073-.019-.118-.002-.047.01-.086.002-.135-.017.022-.016-.033-.023-.088-.02.01 0 .127-.023.131a1.155 1.155 0 01-.035-.185c.018-.007.039.029.041-.073a.58.58 0 01.036.176c.015-.043.032.049.049.095.006-.024.001-.055.003-.079-.039-.037-.051-.244-.085-.225-.008-.038.014-.057.005-.121-.011.017-.022-.059-.036-.041-.004-.055.014 0 .019-.02-.007-.084-.033-.054-.051-.084a.726.726 0 00-.012-.241c-.013-.026-.006.058-.016.038-.019-.064-.034-.049-.054-.17-.01.017-.025.08-.036.102-.016-.033-.011-.088-.02-.143.015.015.012-.021.023-.062a.77.77 0 01.068.175c.017-.079.038-.04.058-.037.001-.028-.012-.066.002-.089-.013.006-.022-.069-.029.012a.475.475 0 01-.029-.116c.008-.027.015.021.02-.005 0-.02-.017-.041-.016-.104-.029.007-.058-.057-.089-.045-.015-.08-.015-.109-.04-.215.015-.062.033.002.049-.033.003-.037-.007-.084-.017-.135.039-.115.06.061.084.186.024.134.066.267.092.414.019.117.027.241.051.271-.007.023.01.061.005.084.014.044.025.026.036.084.001.027-.007.053-.012.07.013.065.026.04.039.03.018.092.059.199.043.285.004.025.01.014.015-.01.056.209.113.597.178.779 0 .043.013.093.009.133.022.071.076.227.073.328.054.14.118.414.153.648.027.083.077.216.078.345.077.195.145.65.208.871a.123.123 0 00-.002.054c-.021-.019-.03-.083-.05-.108.051.243.088.392.145.606.011.015.02-.064.034.003-.007.028-.013.011-.017.02.047.353.087.412.15.68.001.023.004.047 0 .069-.032-.049-.063-.074-.098-.224zM29.78 22.189c.013.048.01.084-.018.032.017-.044-.035-.11-.037-.159-.035-.049-.076-.067-.109-.186-.022-.046-.007.016-.027-.018-.021-.038-.05-.087-.062-.121-.071-.054-.183-.319-.256-.405a.587.587 0 00-.142-.205 6.877 6.877 0 00-.479-.805c-.004-.025-.009-.046-.009-.063-.016.021-.062-.067-.114-.131-.025-.085-.091-.218-.123-.228-.057-.136-.14-.273-.177-.27a.227.227 0 01-.032-.087c-.02-.019-.033-.042-.022.011-.026-.059-.029-.053-.067-.122 0-.024.013-.005.005-.047-.059-.108-.114-.2-.157-.32-.068-.105-.067 0-.132-.107-.002-.022-.002-.046-.002-.068-.019-.023-.018.01-.028.01-.01-.024-.016-.045-.027-.069-.022-.031-.015.027-.025.03-.02-.038-.029-.068-.053-.107-.017-.044-.016-.085-.039-.13-.009.026-.024-.026-.047-.076-.016.015.037.121.016.132a1.319 1.319 0 01-.088-.167c.015-.012.046.017.018-.081a.581.581 0 01.086.157c.002-.045.046.036.076.076-.003-.024-.016-.053-.022-.077-.048-.023-.12-.217-.147-.19-.019-.033-.004-.057-.031-.116-.006.019-.039-.049-.047-.028-.02-.051.014-.004.013-.025-.033-.078-.049-.043-.074-.064a.777.777 0 00-.083-.228c-.02-.021.011.058-.004.041-.037-.056-.047-.036-.103-.146-.005.019 0 .084-.004.108-.025-.027-.036-.081-.061-.13.019.009.005-.025.003-.067a.783.783 0 01.118.147c-.008-.08.023-.05.043-.053-.007-.026-.03-.058-.024-.085-.01.009-.041-.058-.024.021a.541.541 0 01-.062-.103c0-.028.02.016.018-.01-.007-.02-.029-.035-.047-.095-.025.015-.072-.037-.098-.017-.038-.072-.046-.099-.102-.194-.004-.063.032-.007.037-.045a.505.505 0 00-.056-.124c.003-.121.075.04.135.152.062.121.142.236.211.369.053.106.097.222.129.243 0 .024.028.056.03.079.026.038.031.017.06.07.008.026.008.051.008.07.032.058.037.03.046.017.045.082.116.172.126.259.012.023.014.011.012-.013.115.182.285.536.401.691.013.041.039.085.048.123.042.061.14.195.167.293.093.117.236.359.339.572.05.072.138.183.176.306.133.165.332.579.458.771 0 .018.006.036.014.052-.026-.011-.053-.07-.08-.088.121.217.201.348.319.536.015.01 0-.068.033-.008.002.028-.01.014-.011.024.151.323.206.368.345.605.008.022.019.044.021.066-.044-.038-.082-.052-.159-.185zm23.69 37.215c-.145-.31-.189-.658-.29-.97-.234-.379-.183-.771-.363-1.168-.027-.059.014-.032.005-.067-.151-.414-.187-.765-.311-1.125-.049-.137-.171-.311-.083-.367-.025-.096-.092-.188-.11-.275-.028-.148.016-.242-.029-.389-.147-.469-.197-.84-.27-1.24-.015-.069-.061-.156-.075-.222-.082-.38-.077-.663-.187-1.076.014-.003.006-.03.028-.025-.105-.191-.036-.27-.125-.447-.024-.055.022-.025.023-.049-.084-.119-.074-.195-.09-.301-.012-.069-.091-.186-.105-.269-.059-.252-.107-.476-.104-.646-.072-.096-.07-.18-.081-.254.148.186.092.32.226.494-.039.121.143.432.062.473.017.039.066.066.079.105.024.07-.043.03-.037.082.092.128.099.234.054.277.035.057.081.106.115.166.01.237.104.498.162.77-.014.002-.05-.015-.056-.002.002.037.057.051.074.08.028.178.056.264.102.449-.023-.013-.023-.002-.048-.017.016.05.063.087.078.141-.028.17.13.519.115.706.04.073.074.179.019.18.066.133.134.295.074.331.172.36.192.743.288 1.071-.032-.017-.033-.001-.074-.03.051.1.192.231.147.298.057.08.027.128.064.226.007.031-.016.011-.034.001.027.054.079.1.102.157-.011.307.273.819.294 1.194.015.044.056.078.072.12.143.482.11.85.319 1.386.02.046-.11-.006-.1.025.035.075.15.15.181.229-.014-.005-.097-.013-.111-.022zM31.893 24.228c-.229-.256-.508-.537-.694-.806-.333-.295-.465-.665-.752-.994-.043-.048.004-.034-.014-.064-.264-.354-.4-.679-.623-.988-.085-.117-.253-.249-.185-.327-.052-.085-.142-.155-.185-.233-.069-.133-.054-.235-.14-.364-.275-.406-.43-.746-.616-1.11-.034-.06-.103-.13-.135-.19-.189-.34-.265-.613-.49-.976.013-.008-.003-.031.02-.031-.156-.154-.112-.25-.249-.393-.038-.045.014-.03.008-.053-.114-.091-.127-.167-.172-.263-.033-.062-.141-.152-.179-.228-.129-.223-.239-.424-.285-.588-.097-.072-.119-.152-.151-.22.195.136.179.281.358.408-.002.128.262.373.196.436.028.032.082.043.106.077.043.06-.032.041-.011.089.124.096.161.195.13.25.05.045.108.078.159.125.078.225.243.448.377.691-.013.006-.052 0-.054.015.012.035.069.031.094.055.078.161.129.236.227.4-.026-.005-.023.005-.052-.003.03.044.086.067.117.113.022.171.273.459.313.643.059.059.122.15.07.166.102.109.213.244.167.297.268.295.397.656.584.943-.036-.008-.032.008-.08-.008.078.08.251.167.226.243.079.06.064.114.127.199.016.026-.012.014-.032.01.042.044.105.072.143.12.078.297.498.705.626 1.059.027.038.077.058.104.094.276.42.485.741.84 1.195.032.038-.039.005-.02.032.054.062.118.12.17.186-.014 0-.028-.004-.043-.007zM55.18 47.61c.001-.049.014-.083.027-.025-.03.038-.001.116-.012.162.018.059.052.088.049.21.008.051.012-.013.021.025.009.043.023.098.025.134.051.073.081.36.125.464a.61.61 0 00.076.236c.052.3.147.69.222.911a.316.316 0 01-.009.062c.021-.016.039.083.071.158-.002.09.023.237.05.254.015.148.055.303.091.311a.209.209 0 01.004.092c.014.025.021.05.025-.004.008.064.012.06.028.136-.007.024-.014.002-.018.043.025.121.05.227.057.354.033.119.064.018.095.139a.84.84 0 01-.019.067c.013.026.021-.005.031-.002.002.026.002.048.005.073.012.037.022-.019.033-.021.008.043.007.074.019.119.003.047-.01.085-.001.135.016-.022.015.033.023.086.02-.009 0-.126.023-.13.016.057.025.104.036.186-.019.006-.04-.031-.042.072a.612.612 0 01-.036-.176c-.015.043-.033-.048-.05-.094-.005.023-.001.054-.002.079.039.036.051.244.085.225.009.037-.013.056-.004.12.011-.017.023.058.037.041.003.054-.015 0-.02.02.008.083.034.055.051.083a.76.76 0 00.015.241c.011.028.005-.058.015-.037.019.063.034.048.055.169.01-.016.024-.08.035-.101.017.033.011.087.022.141-.016-.013-.013.023-.024.065a.872.872 0 01-.069-.176c-.016.078-.036.041-.056.037-.002.027.011.065-.003.09.013-.007.023.066.029-.014.01.026.021.061.03.116-.009.028-.015-.02-.021.005 0 .022.017.041.017.104.03-.006.058.058.09.045.015.08.014.109.041.216-.015.061-.033-.003-.05.032a.514.514 0 00.018.136c-.038.114-.06-.061-.085-.187-.024-.133-.067-.266-.094-.414-.02-.116-.028-.24-.052-.27.007-.023-.01-.061-.005-.083-.014-.045-.025-.026-.038-.085 0-.027.008-.052.014-.07-.014-.064-.028-.039-.04-.029-.019-.092-.059-.199-.044-.284-.005-.027-.011-.015-.015.009-.057-.209-.116-.597-.183-.779 0-.043-.012-.093-.009-.132-.021-.07-.076-.226-.074-.328a3.626 3.626 0 01-.156-.646c-.027-.084-.078-.217-.079-.346-.079-.195-.149-.649-.213-.87a.11.11 0 00.002-.054c.021.019.03.082.051.108-.053-.243-.09-.391-.149-.607-.011-.014-.019.066-.034-.001.007-.027.014-.011.018-.02-.049-.354-.089-.411-.153-.679-.001-.023-.005-.048-.001-.07.032.049.064.074.099.223zM28.565 11.011c-.016-.047-.015-.083.017-.033-.015.045.04.108.046.156.037.048.079.064.12.179.025.045.006-.016.028.017.024.037.056.083.07.116.074.051.202.308.281.389.062.115.12.168.154.196.154.262.38.594.528.774.006.023.012.045.013.062.014-.022.066.063.122.123.031.084.105.213.137.219.066.133.157.264.193.259.022.03.032.058.038.086.021.017.037.039.021-.013.03.057.033.051.075.118.002.024-.013.006-.002.046.066.105.126.194.177.311.074.1.066-.005.138.097a.803.803 0 01.006.069c.021.021.018-.012.028-.013.012.024.018.045.031.068.024.03.013-.028.023-.032.023.037.033.066.06.104.019.043.02.084.046.127.007-.026.026.025.052.073.015-.016-.045-.118-.025-.13.036.048.061.089.1.161-.015.013-.048-.015-.014.083a.607.607 0 01-.095-.153c0 .046-.048-.033-.081-.07.004.023.019.051.026.075.05.02.134.21.16.18.021.032.007.057.038.114.005-.019.042.047.048.025.023.05-.013.005-.011.026.037.075.051.039.077.06a.744.744 0 00.098.221c.021.021-.015-.057.002-.04.04.052.049.033.11.139.004-.02-.004-.084-.002-.108.027.025.041.078.07.125-.019-.008-.004.026 0 .068a.852.852 0 01-.126-.139c.012.078-.02.05-.04.055.008.025.033.056.029.084.01-.011.045.055.023-.023.018.02.041.049.068.098.002.029-.021-.014-.017.013.008.019.031.032.052.091.025-.017.075.033.1.01.042.07.052.097.114.188.008.062-.032.008-.035.046a.487.487 0 00.065.122c.004.12-.078-.036-.145-.144-.07-.117-.157-.227-.234-.355-.06-.102-.111-.215-.144-.234-.001-.024-.031-.055-.034-.077-.029-.037-.032-.016-.065-.067-.01-.024-.011-.051-.012-.07-.036-.055-.039-.026-.047-.012-.05-.08-.126-.166-.142-.251-.013-.023-.015-.011-.011.013-.126-.175-.318-.517-.444-.664-.016-.04-.044-.083-.056-.12-.044-.059-.151-.186-.184-.282a3.55 3.55 0 01-.373-.55c-.055-.069-.15-.175-.196-.295-.143-.156-.368-.556-.505-.741a.119.119 0 00-.017-.051c.026.01.057.067.086.083a12.586 12.586 0 00-.353-.515c-.015-.009.005.068-.033.01-.003-.028.01-.015.01-.025-.17-.313-.228-.354-.382-.581-.009-.022-.021-.043-.025-.066.047.036.085.048.17.175zm.754 8.444c-.069-.108-.164-.155-.223-.266-.097-.174-.111-.376-.221-.538-.347-.492-.576-.979-.833-1.48-.046-.08-.124-.146-.169-.229-.254-.451-.394-.881-.688-1.347.011-.023-.011-.054.008-.076-.174-.138-.163-.356-.32-.498-.043-.045.003-.066-.007-.104-.125-.057-.155-.195-.221-.323-.044-.087-.163-.152-.217-.254-.171-.297-.322-.568-.406-.826-.1-.046-.143-.172-.189-.27.204.073.232.355.42.425.036.241.326.448.288.625.032.032.082.004.114.042.052.072-.016.11.014.174a.34.34 0 01.177.346c.058.034.119.039.17.081.13.348.335.604.516.928-.011.024-.043.047-.042.076.016.057.069-.006.096.016.111.225.175.321.304.526-.024.015-.017.037-.044.044.039.054.09.047.128.106.068.292.363.591.448.895.066.057.146.164.103.245.12.105.252.25.226.391.311.295.522.845.761 1.199-.034.02-.026.049-.072.06.088.08.263.074.263.243.083.035.085.152.163.249.02.027-.006.038-.023.05.047.039.105.036.153.09.147.476.621.838.83 1.376.032.042.08.032.114.078.35.516.621.92 1.049 1.427.037.039-.031.045-.009.075.066.068.137.114.201.193-.016.006-.028.016-.041.024-.266-.261-.583-.524-.82-.844-.364-.238-.579-.799-.919-1.142-.049-.044-.005-.066-.029-.109-.324-.405-.528-.884-.805-1.244-.105-.14-.285-.234-.248-.434zm23.057 21.352s-.134.222-.275.377a1.256 1.256 0 00-.218.365c-.034.056-.125.224-.131.29-.153.232.062-.087-.05.139l-.031.102c-.043.092-.143.37-.156.47-.038.042-.102.104-.101.194-.006.014-.014.155-.019.17-.072.176-.01.32-.04.543-.012.101-.056.201-.033.285-.048.145-.046.409.009.563-.033.062-.109.218-.102.297.017.287-.057.547-.001.826l.026.106s-.005.239-.02.267c-.016.023-.075-.011-.074-.037 0-.026-.054-.338-.054-.338l-.051-.196.038-.138c-.054-.275.067-.636.049-.928-.006-.075-.022-.133.011-.192-.056-.157-.013-.415.034-.563-.02-.085.023-.186.035-.284.032-.244.078-.495.159-.674 0-.09.03-.142.069-.186.01-.098.072-.201.115-.29l.001-.049c.11-.229.054-.217.209-.451.004-.063.06-.12.095-.18l.115-.072.093-.217.149-.158.15-.189.075-.161.244-.069-.32.378zm9.163-12.266c-.01-.076-.049-.295-.105-.373-.016-.308-.054-.151-.152-.492l-.062-.139c-.042-.136-.199-.525-.279-.644-.001-.077.005-.201-.078-.299-.008-.019-.131-.18-.139-.201-.091-.252-.287-.361-.461-.627-.081-.121-.13-.268-.23-.341a1.646 1.646 0 00-.529-.608c-.024-.096-.093-.33-.171-.411-.284-.301-.451-.647-.764-.906l-.123-.093s-.217-.267-.225-.308c-.007-.039.083-.053.108-.023.022.027.364.324.364.324l.231.173.088.182c.309.256.521.752.809 1.056.075.078.145.127.167.221.198.124.397.443.485.643.099.077.149.223.228.341.194.294.38.607.464.872.083.097.1.181.103.262.08.116.113.28.155.415l.044.055c.101.341.281.681.296.99.055.075.032.154.045.234l-.092.108-.177-.411zm-.067-1.693c-.019-.073-.082-.287-.147-.358-.05-.304-.07-.143-.206-.471l-.077-.131c-.057-.131-.258-.499-.351-.61-.008-.075-.017-.199-.111-.287-.009-.018-.15-.164-.161-.185-.119-.24-.325-.326-.528-.571-.094-.111-.159-.251-.267-.313a1.652 1.652 0 00-.595-.544c-.034-.092-.13-.317-.216-.388-.316-.267-.521-.593-.861-.814l-.133-.08s-.245-.24-.258-.28c-.011-.038.076-.062.104-.034.025.024.399.28.399.28l.249.145.108.171c.336.22.603.689.923.958.084.07.159.111.191.202.211.1.444.395.554.584.107.065.174.205.265.313.226.27.446.56.56.814.093.087.12.168.132.248.092.107.144.266.2.395l.05.049c.14.329.356.646.406.951.064.069.05.149.071.228l-.078.117-.223-.389zm-9.007 12.726s-.179.233-.359.351c-.179.122-.293.38-.293.38-.045.06-.17.244-.185.34-.203.23-.066.144-.234.458l-.053.142c-.065.127-.223.516-.25.657-.053.055-.143.139-.152.268-.008.019-.032.221-.041.242-.111.244-.046.457-.108.77-.026.142-.094.282-.073.405-.077.202-.1.58-.045.805-.05.085-.163.3-.164.413-.007.414.012.778.055 1.181l.023.154s-.031.341-.053.378c-.023.032-.096-.022-.093-.059.003-.036-.035-.487-.035-.487l-.046-.285.064-.192c-.042-.399.012-.903.017-1.321 0-.109-.015-.193.035-.275-.055-.227.026-.594.102-.799-.017-.124.048-.264.074-.403.067-.345.152-.699.277-.948a.398.398 0 01.108-.26c.025-.139.115-.28.179-.405l.007-.07c.166-.315.275-.684.479-.915.013-.093.085-.134.131-.2l.141-.013.131-.257.19-.119.193-.164.106-.187.282.102-.41.313zM20.85 9.393c.102.134.277.269.379.404.117.153.159.306.275.459.114.152.302.304.415.457.162.216.25.433.411.651a66.435 66.435 0 011.552 2.194c.126.239.255.477.41.688.293.545.618 1.062.931 1.586.536 1.007 1.068 2.019 1.691 2.939v.047c.42.622.788 1.288 1.214 1.901.503.803 1.013 1.601 1.575 2.346a12.837 12.837 0 001.949 2.19h.045c.294.342.701.565 1.074.828.031.006.01-.042.046-.032-.005.036.021.04.013.082.621.396 1.315.721 2.03 1.026.036.006.053-.008.08-.014.016.084.145.094.221.083.011.021.028.036.037.058.635.211 1.294.445 2.005.55.277.092.564.136.839.163.09.048.223.066.304.034.004.03.034.03.046.048.315.022.629.118.946.08.22.067.641.085.92.048.064.031.154.02.222 0 .089.059.225-.002.34 0 .084.002.167.035.255.035a4.47 4.47 0 00.666-.059c.109.07.227-.03.303.034-.067.034-.158.038-.197.071.111.03.199-.077.302-.022.207-.099.499-.115.814-.129.106-.004.158-.034.236-.048.024-.004.056.014.08.012.41-.034.957-.088 1.306-.211.237.004.518-.078.701-.126.166-.045.349-.055.512-.095.296-.072.592-.144.887-.223.117-.026.223-.09.339-.116.141-.03.304-.028.444-.081.07-.023.177-.056.267-.07.661-.084 1.342-.247 1.971-.301.558-.05.783-.152 1.133-.196a6.85 6.85 0 01.922-.065c.565-.002 1.114.12 1.655.203-.004.022.016.022.024.034.135-.03.229.101.359.068.285.113.48.267.776.346l.038.018c.06.052.134.096.211.13l.044.028c-.025.042-.014.089.07.115.132.042.256.104.369.185.339.347.587.795.874 1.198.022.071.053.139.087.207.202.514.297.466.416.857.149.494.203.714.232 1.018.029.484.085.841.029 1.452-.025.283.002.582-.029.842-.027.231-.12.479-.145.668-.06.448-.267.746-.261.756 0 0-.061.115-.258.383-.208.283-.642.574-.643.574-.123.087-.908.818-1.319.994-.117.053-.336.342-.364.143-.269.258-.434.513-.764.67-.079.061-.303.34-.38.404-.18.152-.566.619-.811.854-.038-.01-.014.038-.058.023-.061.068-.117.143-.188.197-.248.285-.429.617-.652.92-.051.069-.135.117-.14.211-.228.251-.32.629-.49.955v.071c-.065.13-.161.279-.176.419a.346.346 0 00-.103.27c-.129.257-.194.621-.235.968-.017.144-.084.287-.047.407a14.005 14.005 0 00-.115 2.467c.007.231.02.471.037.719.016.224.035.458.058.701.105.495.216.986.33 1.473.088.373.251.744.342 1.111.045.185.019.37.065.554.077.307.227.612.304.914.069.272.065.541.134.81.073.289.218.575.29.86.098.394.121.784.212 1.167.063.267.196.53.254.79.067.299.057.594.115.887.069.345.204.686.259 1.02l.188.294c.017.028.017.069.03.1-.01.024-.03.026-.034.055.09.382.138.881.325 1.213-.045.255.103.537.214.748.14.386.142.763.296 1.135.003.09.018.179.053.275.007.018.021.029.032.04a.67.67 0 00-.047.106.134.134 0 00.01.122.532.532 0 00.102.291c0 .018.003.035.003.053-.012.015-.024.029-.027.042-.042.258-.016.52-.042.78-.011.134.033.246.066.363a.149.149 0 00-.05.074c-.045.186-.083.373-.12.561a1.227 1.227 0 00-.135.34c-.008.03.02.051.062.068a.416.416 0 00-.008.043v.006c-.06.021-.108.051-.117.097-.062.258-.15.514-.234.77-.097.209-.192.424-.277.64-.001.004 0 .008-.002.012l-.007.016c-.07.019-.057.064-.112.1.018.054-.049.11-.082.138-.012.027.016.027-.001.06-.183.212-.187.202-.318.484-.101.091-.303.261-.34.392-.058-.039-.083.048-.12.074.041.002.056.019.063.047-.027.039-.064.136-.154.127-.033.022.023.034 0 .082-.044.023-.105.015-.121.074.006.03-.172.178-.168.212-.095.065-.286.19-.376.239-.018.102-.106.104-.16.151.053.01-.175.07-.178.121-.127.1-.108.152-.297.165-.176.119-.119.204-.309.299-.004.143-.166.182-.306.173-.035.118-.183.081-.261.144.146.118.586.049.993-.024-.065.022.435-.087-.43.26-.022.004-.041-.039-.047.008-.008.039.049.033.032.076-.03.026-.043.078-.086.091-.034-.04-.117-.024-.122.026-.01.027.052.001.027.041-.014.031-.728.293-.732.339.081-.046.237-.014.324-.018.069-.112.547-.107.645-.177-.044-.049.151-.03.105-.071.069-.01.151-.08.195-.125.133.052.079-.199.153-.025-.007.031.089-.128.081-.094.104-.006.631-.532.743-.503-.014.055-.604.534-.622.593-.107.064-.231.103-.288.232.049.07-.465.326-.386.399.063-.056.896-.355 1.42-.718-.048.288-.719.563-.723.623-.02.015-.05.016-.074.024-.055.142-.159.213-.225.338.013.053.051.091.042.162l.093.017c.065-.109.198-.121.301-.173-.005.066.055.059.014.132.066-.04.223-.14.326-.128.007-.036-.022-.045-.021-.076.023-.036.071-.052.088-.089.016-.004.035-.007.05-.015.19-.087.379-.176.553-.293.084-.061.087-.144.023-.201.031-.048.068-.041.179-.045.017-.084.432-.199.435-.347.076-.03.112-.04.203-.061l.013-.079c.075-.015.138-.043.17-.084.022-.027.048-.054.075-.082a.24.24 0 00.198-.197c.114-.102.227-.199.33-.311a.144.144 0 00.028-.057c.037-.034.063-.083.045-.116.022.002.021.017.044.017a.667.667 0 01.207-.234c.041.01.044.029.072 0 .021-.086-.053-.035-.072-.059.057-.058.116-.17.191-.157.018-.042-.036-.055.005-.081.036-.01.069.057.08.002 0-.036-.059-.032-.047-.08.096.014.068-.143.165-.123.014-.033-.015-.037.003-.071.024.01.028-.018.06-.001.109-.237.335-.309.419-.581.1-.029.02-.173.056-.261.043-.002.047.029.069.014.094-.122.16-.211.219-.368.014.018-.008 0 .043-.009.085-.092.065-.024.126-.145a.523.523 0 00.116-.113c.115-.13.041-.199.146-.322-.061-.125.155-.084.121-.304.114.016.196-.231.162-.321.214.001.157-.21.207-.348l.08-.09c.013-.033.108-.107.113-.136.142-.075.026-.114.152-.219.028.053.017-.166.068-.133.025-.027.016-.063.058-.08.029.006-.012-.068.005-.081.054-.066.066-.188.127-.251.116.076.031-.115.065-.178-.013-.035-.056.016-.065-.022-.003-.037.023-.031.009-.055.015-.013.034-.025.046-.042l.032-.063c.016-.005.032-.01.041-.031-.008 0-.014-.003-.02-.004.215-.387.095-.318.227-.74a.156.156 0 00-.063-.186c.171-.351.293-.168.325-.56.001-.02.123-.346.104-.358.009-.05.112-.266.122-.32.062 0 .109-.284.104-.33.071-.079.04-.203.035-.242-.052-.124.126-.246.069-.365.047-.071.033-.143.087-.225-.013-.1.013-.371.087-.486-.099-.358.056-.188.017-.575.041.039.033-.287.07-.295-.018-.15.058-.315.017-.451l.047-.283c.045-.379.077-.71.064-.859a26.142 26.142 0 00-.085-.881c-.038-.33-.154-.666-.207-1.008-.033-.222.002-.445-.038-.673-.049-.28-.104-.563-.164-.85-.048-.225-.172-.454-.226-.683-.077-.324-.085-.649-.165-.974l-.3-1.191c-.102-.41-.201-.816-.294-1.217-.035-.15.005-.299-.027-.447-.066-.301-.199-.599-.252-.89-.056-.302-.03-.598-.067-.887-.045-.345-.148-.68-.16-1.002a7.023 7.023 0 01.027-.982c.046-.434.141-.835.297-1.192.145-.334.515-.742.752-.98.237-.237.505-.454.937-.563l.149-.065c.084-.033-.198-.059-.113-.08.001-.006.006-.01.008-.017.008.002.013.007.017.011.031-.007.063-.013.093-.017.11-.065.246-.106.334-.194.366-.154.662-.384 1.002-.57.024-.017.021-.064.047-.08.035-.021.057.002.081-.014a17.912 17.912 0 001.47-1.084c.017-.035-.008-.039.012-.068.142-.053.199-.191.327-.258.025-.054.055-.103.081-.15a.305.305 0 00.176-.19c.217-.128.307-.392.5-.548-.005.023.016.072-.022.059-.054.03-.071.114-.071.163-.03.033-.11.074-.069.143.071-.029.112-.089.106-.199.029-.037.069-.065.069-.131.022-.012.044-.032.071-.046.005-.052.117-.214.106-.286.189-.344.392-.566.58-.951.188-.385.288-.788.419-1.202.028-.088.089-.202.117-.268.06-.132.098-.329.152-.512.049-.161.146-.311.117-.442.088-.069.067-.172.095-.271.039-.161.101-.323.128-.5.092-.68.168-.727.162-1.482-.002-.113 0-.227 0-.339 0-.175-.03-.36-.038-.536-.007-.149.025-.296.015-.444a16.373 16.373 0 00-.191-1.474 12.98 12.98 0 00-.272-1.205c-.034-.122-.143-.244-.18-.364-.072-.23-.079-.455-.165-.675a9.717 9.717 0 00-.377-.836c-.067-.132-.208-.262-.278-.388-.063-.114-.053-.226-.117-.335l-.155-.262c-.114-.19-.228-.373-.34-.549-.002-.065-.11-.095-.143-.129-.14-.281-.247-.52-.43-.757a23.336 23.336 0 00-.504-.658c-.081-.104-.091-.205-.175-.307-.384-.46-.867-.891-1.341-1.262a.754.754 0 00-.336-.259c-.075-.112-.226-.153-.316-.255-.088 0-.118-.062-.162-.095-.23-.152-.127-.256-.382-.383a17.462 17.462 0 00-2.285-.921c-.031-.002-.058-.002-.072.011-.014-.061-.089-.038-.138-.035-.019-.012-.025-.03-.037-.048-.488-.117-.952-.263-1.494-.28-1.05-.198-1.856-.094-2.922.02l-.421.043a32.69 32.69 0 01-.458.041c-.718.054-.711.013-.711.013l-1.518.327-1.076.195-.85.158c-.417.078-.824.156-1.13.219-.456.094-.96.201-1.352.327-.099.03-.304.117-.304.117s-.133-.015-.198-.002c-.449.114-.903.192-1.365.259-.283.04-.574.042-.885.056-.587.028-1.157.048-1.691 0-.11-.008-.222.002-.329-.01-.016-.004-.016-.03-.034-.036-.05-.014-.129.002-.189-.01-.207-.052-.428-.105-.627-.153-.046-.012-.098.002-.14-.012-.029-.006-.041-.038-.07-.046-.152-.043-.321-.043-.468-.106-.029-.011-.043-.037-.069-.047-.1-.034-.257-.054-.315-.104-.024-.02-.03-.002-.059 0-.039-.078-.167-.097-.244-.104-.153-.173-.441-.205-.607-.364-.026 0-.035-.018-.07-.01-.05-.138-.211-.161-.268-.291-.029.005-.025-.022-.058-.013-.305-.359-.618-.713-.911-1.084.004-.028-.021-.025-.012-.06-.153-.11-.244-.281-.36-.43-.018-.015-.057-.008-.072-.022.021-.117-.093-.193-.151-.27-.104-.147-.197-.306-.325-.431 0-.027-.022-.036-.013-.07-.296-.269-.444-.683-.735-.955-.067-.226-.272-.311-.337-.538-.065-.039-.108-.092-.164-.141-.004-.037-.018-.066-.012-.115-.173-.247-.389-.442-.512-.735-.1-.056-.134-.179-.223-.245a7.445 7.445 0 00-.723-1.109c.013-.127-.124-.21-.174-.314-.046-.009-.019.051-.07.035-.007-.057.017-.074.023-.118-.11-.151-.199-.369-.351-.441a.255.255 0 00.012-.107 1.468 1.468 0 00-.268-.338c-.015-.079-.067-.119-.116-.164-.03-.105-.078-.193-.164-.245-.086-.201-.231-.345-.349-.512.014-.002.013-.019.013-.034-.027-.028-.067-.038-.085-.072-.282-.492-.648-.905-.956-1.374-.026-.023-.054-.039-.08-.062a16.405 16.405 0 00-1.362-1.638l-.325-.274a8.134 8.134 0 00-.955-.956.59.59 0 00-.211-.21 14.742 14.742 0 00-1.212-1.131c0-.019-.002-.038-.013-.048-.115-.045-.161-.165-.292-.197-.021-.082-.112-.089-.14-.164a.08.08 0 00-.056-.012c-.183-.199-.43-.334-.621-.525h-.068a.778.778 0 00-.374-.268c-.018-.017-.007-.055-.024-.071-.284-.143-.469-.384-.769-.512-.513-.442-1.205-.699-1.818-1.039-.33-.098-.567-.288-.898-.383a3.961 3.961 0 00-.298-.151l.014-.021a.12.12 0 01-.032.013 3.128 3.128 0 00-.212-.097.772.772 0 01-.109-.039c-.005.005-.011.005-.024.003-.006-.011-.014-.018-.019-.027a.44.44 0 01-.112-.081c-.069-.028-.141-.03-.21-.062-.027-.031.001-.053-.027-.088-.091.018-.172-.033-.251-.089a.529.529 0 01-.311-.027c-.024-.036.034-.054.064-.082-.143-.125-.311-.098-.451-.231-.065.045-.119.036-.159-.032.02-.013.035-.003.054-.019-.062-.052-.126-.088-.211-.009-.116-.107-.245.022-.341-.045.019-.011.038-.026.056-.039a.653.653 0 01-.34-.151c-.096-.047-.203-.021-.29-.115-.103.049-.309.077-.282-.085-.034-.025-.082.036-.108-.032-.057.037-.052.032-.103.072-.11-.068-.25.033-.351-.107-.008-.014.011-.025.028-.037-.074-.076-.192-.127-.26-.047-.067-.026-.126-.094-.213-.013-.23-.135-.509-.008-.743-.132-.044.019-.003.049-.023.067-.082-.078-.265-.051-.412-.1.004.02.007.037.002.053-.013.036.071.01.093.059.002.033 0 .063.015.095.07.022.14.052.221.021.02.034.007.057.006.084-.046-.005-.101.034-.145.013.02-.024.06.009.027-.038a.752.752 0 00-.336.042c.048.072.127-.019.184.013-.012.029-.057.052-.045.085-.128-.033-.274.049-.401-.006-.147.115-.302.061-.458.076-.02-.04-.048-.02-.062-.064-.035.048-.096.035-.175.069.146.084.381.069.469.112-.276.027-.553.055-.81-.034-.044.062-.104.022-.113.062.132.136.3.075.444.165-.114.06-.198-.046-.307-.017 0-.071-.169 0-.136-.097-.066.071.082.111.125.107-.239.164-.493-.174-.673.065-.133-.006-.276.025-.39-.065-.043.044-.072.018-.109.042-.05-.05-.112-.028-.179.018-.09.015-.22-.058-.284.005.176.028.357.055.529.123-.007.035-.013.009-.045.031.128.03.267-.006.393.024.022.028-.022.04-.01.063.048-.034.078.033.119.02.032-.01.009-.039.052-.049.186.021.459.037.578.087-.052.018-.094-.006-.147.014.081.046.169.043.252.091-.024.014-.048.031-.071.046-.173-.167-.395-.032-.579-.142.015.032-.054.051-.069.048-.01-.043-.029-.075-.072-.055.003.032.062.016.033.047-.104.026-.186-.072-.293-.024.032.039-.009.092.053.104.054-.009.035-.024.042-.065.018.054.094.034.077.086-.208-.015-.409-.078-.623-.058.158.076.325.098.483.155.042-.053.056-.082.121-.03.008.027-.043.044-.002.073.038.045.088.028.134.047.014.043.02.12.059.134.054-.012-.034-.053.024-.067.239.107.527.182.727.356.094-.026.181.028.232.136.103.045.205.116.308.172.002.032.025.07.034.098.136-.026.299.132.385.209-.12-.059-.327.082-.393-.096-.048.039-.084.012-.119-.023l.057-.039c-.03-.048-.072-.001-.105-.053.057.007-.023-.034-.004-.082-.046-.016-.104.048-.146.014-.089-.06-.016-.084-.056-.155-.039-.019-.081-.003-.13.036a1.293 1.293 0 01-.215-.166c.038-.048.085.025.094-.03-.076-.027-.159-.007-.242-.008.036.071.093.015.133.067-.064.065.095.042.064.098-.174.003-.231-.072-.387-.189-.201.05-.289-.195-.472-.237-.014-.03.05-.045.015-.08a.38.38 0 00-.134-.065c-.018.051.112.051.093.111-.105.024-.203-.011-.3-.038-.033-.067-.079-.06-.112-.112-.258-.017-.498-.143-.757-.127.273.134.645.22.952.358.01.016-.002.026.014.042.143.004.289.06.383.207.199-.025.35.239.535.281.017.024-.033.033-.009.059.056.018.113.018.158.08 0 .044-.005.026-.049.053.024.063.06.015.088.027-.022.014-.018.031.002.051.085 0 .113.018.188.098.023-.018.046-.025.062-.007.16.114.326.174.483.297.08-.031.189.042.216.113.105-.01.225.076.281.156.179.053.345.172.517.275l-.036.025c.085.051.179.028.255.141.02-.014.042-.02.06-.009.286.119.56.323.842.467.07.125.221.164.333.21a.144.144 0 01.005.024.55.55 0 01.099.059.17.17 0 01.065.01.111.111 0 00.012.061c.01.01.02.022.029.034a.319.319 0 00.161.048c-.002.02-.042.034-.01.06.075.027.227-.001.225.124.073-.036.163.033.191.106a.599.599 0 01.203.144l.044.017-.01.016c.823.427 1.497.999 2.277 1.463.163.136.31.284.503.387.268.298.58.555.829.874.023.013.056.018.08.034-.01.038.018.038.025.06.228.151.354.405.582.56l.041.139z" fill="#448C37"/><path d="M32.691 60.488c.028.201.111.376.048.628.077.062.02.167.116.223-.013.032.003.052-.034.065a.344.344 0 01.093.324c.232.247.18.588.376.846-.007.014-.011.026-.019.039.134.139.039.354.246.469.045.182.173.285.265.465-.052.086.035.125.052.189-.02.019-.046.016-.06.05-.001.048.047.082.044.136-.112.028-.121-.146-.194-.196-.018-.027-.065-.003-.074-.026.004.089.196.202.162.331-.096-.052-.151-.119-.161-.195-.048-.031-.078-.008-.127-.035-.028-.1.046-.201.048-.283-.122-.02-.08-.172-.17-.236-.051.007.016.07-.031.114-.124.03-.112-.13-.118-.207.014-.055.05-.031.071-.044.018-.148-.183-.223-.15-.372-.073-.027-.042.048-.091.083-.052-.024-.027-.124.034-.097.001-.051-.049-.105.007-.144-.104-.15-.099-.332-.146-.5-.046-.037-.06.016-.105-.019.009-.061.052-.016.079-.026.051-.121-.077-.183-.003-.31.005-.039-.054.008-.083-.026-.022-.08-.011-.134.026-.214-.087-.098-.04-.237-.099-.344-.009-.004-.018.006-.032-.003-.021-.011-.008.051-.038.077.043.115.12.228-.013.371-.089-.195.049-.396-.073-.578.034-.061.094-.059.146-.066.08-.198-.177-.284-.075-.481.028-.001.06.006.083-.008zm2.213-17.033c-.187-.078-.38-.097-.564-.279-.092.034-.154-.069-.251-.014-.02-.028-.047-.024-.038-.062a.35.35 0 01-.326-.086c-.331.072-.597-.147-.919-.112a.18.18 0 01-.024-.035c-.188.043-.324-.146-.529-.029-.178-.054-.333.004-.536-.01-.046-.088-.124-.033-.188-.052-.007-.026.01-.048-.012-.077-.041-.025-.095-.002-.14-.031.033-.111.187-.03.268-.066.032-.002.036-.055.06-.051-.078-.041-.274.064-.367-.03.093-.056.179-.07.25-.039.051-.025.046-.063.095-.091.1.028.148.142.219.187.079-.096.188.018.289-.027.02-.047-.068-.022-.082-.084.037-.122.169-.03.239.004.04.041 0 .058.002.084.116.091.284-.043.395.06.061-.048-.02-.06-.025-.12.048-.032.12.04.067.079.043.028.115.012.119.08.183-.012.336.084.504.13.056-.02.017-.059.07-.08.048.038-.012.052-.018.08.078.107.197.028.269.157.03.024.02-.05.064-.058.081.021.122.06.171.133.129-.027.224.086.346.089.008-.005.005-.017.019-.025.021-.013-.04-.033-.047-.072-.121-.024-.258-.015-.312-.201.214.023.316.244.534.232.035.061.002.111-.017.16.129.17.333-.008.451.182-.014.023-.036.048-.036.074zm-4.347 1.07c.094-.052.109-.036.204-.11.24.017.49-.003.715.082a3.393 3.393 0 01-.919.028zm2.644 16.157c-.02.205.043.369.104.594-.034.083.005.122.03.217-.145-.109-.132-.343-.24-.513.033-.044.031.038.06.016-.033-.089-.179-.277-.244-.379.037-.164-.052-.356-.007-.518-.061-.068-.008-.11-.071-.173.009-.041.045-.071.076-.1.091.285.128.611.292.856zm-3.446-17.416c-.206-.016-.368.05-.593.115-.083-.032-.122.008-.216.034.107-.147.34-.139.508-.249.047.031-.036.031-.014.061.088-.036.274-.186.373-.252.166.035.357-.058.52-.016.066-.063.109-.01.171-.074.04.008.072.044.1.074-.283.096-.608.139-.849.307zm-6.628-3.803c-.077-.131-.075-.236-.112-.338.058 0 .108.023.169-.004.007.045-.023.085-.038.127.027.055.099.113.018.141.012.032.035.011.052.002.005.023.002.046.007.064-.037.023-.062.004-.096.008zm-.662-3.842a.603.603 0 01-.038-.168c.032.012.098-.006.107-.051-.009-.002-.022-.009-.035-.027-.04.014-.02.037-.052.05-.057-.085-.098-.249-.046-.345-.012.088.068.1.133.106.064-.022.047-.061.082-.086.034.019-.001.089.051.05-.035.088-.1.168-.091.264.007.009.019.005.026.017.034.03.034-.031.063-.038.002.05.045.108.045.156-.09-.039-.217.012-.245.072zm-.212 6.551c-.114-.181-.187-.542-.327-.664.029-.135-.078-.304-.115-.457.043-.073.024-.151-.053-.223-.029-.033.012-.052.019-.08-.05-.025-.078-.082-.106-.141-.017-.042-.013-.058-.042-.125-.047-.099-.063-.248-.047-.293a.827.827 0 01-.137-.462c-.077-.178-.146-.348-.123-.5-.148-.16-.067-.387-.161-.536.019-.105-.05-.228-.056-.335.009-.026.038-.042.044-.065-.016-.039-.072-.087-.035-.115.159.036.055.267.178.4-.083.123.025.223.062.343.022.082.007.126.054.253.082.217.066.5.204.711a.18.18 0 00.033.215c.04.306.156.612.212.889.035.052.083.033.118.08-.067.122.04.337.116.458-.047.194.199.436.162.647zm-.388-9.267c.064-.036.09.056.138.084-.05.008-.11.064-.16.07.015.032.053.008.078.014.022.041.054.081.048.109-.065.017-.066.028-.126.045-.082-.174-.018-.216.022-.322zm-1.767-.205c.004-.016.006-.033.008-.046-.171-.301-.24-.647-.377-.928.14.281.206.628.377.928-.002.013-.004.03-.008.046zm-2.002 1.062c-.017-.084-.22-.781-.239-.848-.021-.06.127-.147.136-.193-.098-.18-.18-.37-.145-.576-.02-.052-.054-.071-.09-.095.036-.096-.032-.192-.01-.288-.043-.043-.063-.141-.115-.172-.088-.774-.304-1.298-.489-2.151-.106-.147-.152-.413-.175-.629-.121-.354-.349-.835-.404-1.177-.109-.068-.14-.216-.159-.316-.023-.145-.122-.22-.179-.354-.053-.12-.031-.29-.172-.357-.113-.388-.353-.695-.458-1.054-.178-.171-.217-.39-.349-.605.184-.03.126.142.229.309.036.055.107.068.121.19.026.045.068.071.105.103-.015.071.044.132.083.172.01.04.034.088.021.116.281.341.411.914.653 1.253.013.105.077.283.15.344.035.367.264.652.304 1.002.223.378.301.877.445 1.256.011.346.188.716.308 1.068-.029.15.044.278.086.43.042.154.004.352.133.491-.013.036-.045.065-.038.116.099.081.044.209.073.342.03.139.153.284.083.423.134.141.067.403.181.583.078 1.126-.147.708-.089.617zm-2.902-8.891c.015-.088-.08-.112-.124-.158-.068-.162-.144-.316-.246-.411.038-.115-.1-.16-.122-.249 0 0 .024-.069.027-.068-.028-.053-.127-.112-.165-.192-.051-.1-.016-.218-.122-.252-.012-.035-.029-.077-.015-.1-.091-.074-.196-.239-.177-.325-.351-.428-.599-.916-.935-1.486-.025-.033-.071-.03-.104-.043-.02-.218-.197-.209-.224-.341.088-.025.172.147.209.239.19.182.368.379.522.628.047.048.07.017.119.039.019.043.028.083.002.106.001.041.063-.034.063.012.016.033-.004.049-.042.057.059.1.198.242.277.417.014.028.056.032.058.04.009.014-.026.036-.013.05.056.077.232.142.168.251.094.153.143.401.298.442.022.068.06.087.012.132.028.066.082.089.128.128.117.385.323.66.48 1.079-.03.012-.038-.017-.074.005zm-5.078-6.339c.016-.101.156-.017.238-.062.071.078.23.079.159.183-.157-.044-.248-.065-.397-.121zm4.556 3.743c.015-.042-.021-.113.036-.124-.004-.061-.069-.034-.085-.072.01-.225-.222-.335-.268-.513-.089-.017-.187-.143-.126-.211a.514.514 0 01-.133-.256c.027-.001.039.022.076.015.137.2.304.501.453.741.005.04.059.079.006.104.034.03.084.04.118.082.011.124.064.189.141.224.255.568.574.88.817 1.457.015.033.047.044.072.063-.028.117.111.212.149.341.007.024-.011.047-.003.072.055.13.231.228.188.394-.014.002-.029.003-.043.008-.086-.127-.109-.249-.174-.41-.039-.093-.104-.113-.167-.19-.043-.058-.046-.134-.08-.193-.108-.204-.267-.407-.327-.605-.288-.276-.364-.713-.65-.927zm2.703 5.337c-.029-.156-.119-.255-.139-.416.095.092.108.264.183.342.021.031-.036.054.003.059-.003.015-.028.011-.047.015zm-.278-1.34c.011-.049-.049-.02-.057-.041.056-.051-.111-.109-.02-.146-.009-.032-.023-.054-.073-.043-.005-.062-.042-.086-.046-.142.041-.012.047-.061.085-.075.099.112.147.299.155.431.045.046.114.139.063.202-.069-.011-.193-.163-.107-.186zm1.518 3.973c-.123-.1-.165-.341-.155-.489-.146-.123-.108-.439-.261-.558.048-.15-.14-.311-.098-.461-.035-.046-.137-.091-.092-.17-.055.007-.061.013-.101-.013.028-.105-.023-.137-.05-.23 0-.051.04-.058.07-.076-.016-.037-.111.008-.13-.023.032-.119.004-.134-.034-.231.06-.039.11.002.117.069a.345.345 0 00-.045.001c.004.065.094.043.119.083.035.176.17.309.157.488.053.039.088.106.135.156.013.047-.049.021-.041.06.051.117.187.323.095.447.016.037.042-.023.061.013.046.218.185.415.172.659.044.061.078.13.137.173-.012.04-.047.056-.056.102zm-6.163-10.257c-.152-.092-.303-.257-.415-.39.139.093.357.227.415.39zm2.578 3.15c.002.042-.026.071-.081.084-.054-.093-.102-.111-.127-.217.06.056.145.076.208.133zm.093.801c-.169-.112-.267-.356-.382-.562.014-.004.022-.012.021-.023.241.062.289.433.361.585zm-1.581-2.637a.625.625 0 00-.06.04c.131.145.206.261.36.444-.172-.104-.311-.359-.472-.514.07-.04.118.006.172.03zm2.25 3.843c.01.034-.005.057-.038.073.098.14.19.273.24.44.083.039.154.191.175.278.02.063-.032-.013-.057.005-.026-.131-.144-.179-.134-.292-.056-.054-.099-.128-.168-.146.018-.143-.087-.26-.136-.4.045 0 .071.04.118.042zM5.755 14.488c.008-.129-.116-.138-.171-.272.077.05.233.181.233.267.137.057.291.2.426.382-.19-.017-.304-.349-.488-.377zm.094.454c-.026-.005-.054.015-.078.012-.022-.048-.041-.067-.043-.125-.042-.011-.089-.018-.104-.056-.006-.016.011-.056.015-.06-.045-.046-.105-.027-.161-.089.013-.009 0-.021-.002-.032.172-.041.259.224.385.29-.004.02-.044.03-.012.06zm-1.056-1.831c.151.156.221.436.425.654-.206-.111-.28-.372-.425-.654zm-.816-.79c-.102-.077-.103-.301-.132-.431.039-.034.061.015.093.012-.001.154.051.261.039.419zm-1.941-4.76c.03-.172.151-.317.255-.468.036-.177.159-.334.295-.487.031.05.071.023.073.09-.285.226-.385.627-.623.865zm1.938-.781c.008.045.042.092.052.139-.122.081-.351.12-.246.289-.137.043-.199.157-.26.213.006-.239.28-.509.454-.641zm1.796.092c0 .082.08.021.124.061-.02.012-.042.024-.062.038-.061-.088-.22.043-.234-.077.048.024.109.009.172-.022zm33.102 40.081c.054.091.221.297.041.367-.043-.093-.09-.144-.145-.232.046-.04.045-.129.104-.135zM19.766 26.085c-.042 0-.406-.909-.435-.963.015-.133-.313-.82-.499-1.385-.751-1.869-1.059-2.995-3.956-6.137-.239-.259-.825-.685-.86-.737-.176-.256-.814-.523-.961-.674-.233-.238-.295-.226-.756-.399a4.41 4.41 0 00-.377-.185c-.106-.045-.289-.015-.405-.054a6.328 6.328 0 00-.761-.155c-.437-.052-.748-.038-1.283-.098-.157-.008-.402-.069-.707-.075a5.906 5.906 0 01-.983-.097c-.495-.141-.785-.246-1.015-.514a5.406 5.406 0 01-.664-.629 5.227 5.227 0 01-.778-1.126 3.542 3.542 0 01-.342-1.029c-.055-.122-.195-.536-.199-.62a2.167 2.167 0 01.041-.665c.029-.115.001-.347.116-.364.014-.306.291-.499.336-.794a43.43 43.43 0 011.266-1.323c-.02.003-.034-.001-.048-.023a.442.442 0 01.28-.207c-.021-.028-.039-.06-.013-.078.056-.048.151-.038.133-.115-.173.095-.448.193-.533.349-.085-.022-.134.07-.22.084.012.083-.155.148-.216.119.081-.19.34-.302.445-.466-.065 0-.131.094-.233.095-.011.083-.081.123-.165.12-.034.023-.008.061-.03.086-.03-.022-.069.017-.094-.01.031-.03.017-.074.017-.112-.05.015-.037.045-.078.066-.019-.043-.058-.033-.046-.073.04.001.089-.029.132-.031.024.018-.01.06.037.027.124-.001.176-.153.273-.222.057-.045.203-.045.192-.152-.131-.031-.225.135-.351.147.002-.032.089-.049.062-.088-.199-.004-.213.201-.423.196-.067.094-.241.268-.366.261.006-.052.068-.09.046-.147.03.01.053.031.091.01.078-.093.142-.217.258-.244-.079-.065-.108.017-.18.042.011.02.033.042.02.058-.178-.004-.227.191-.392.191.011-.047.064-.035.099-.061.151-.23.484-.461.718-.653.099-.081.168-.095.127-.131.039.015.115-.021.121-.039-.018.013-.064-.024-.041-.045.059-.047.14-.022.166-.067-.105-.031-.149.003-.298.1a.277.277 0 01-.022-.037 4.927 4.927 0 01-.113.069c.04.132-.172.151-.253.139-.042.091-.159.107-.219.14.228-.227.621-.478.985-.719-.018-.04-.057-.004-.071-.057.079-.021-.018-.057.007-.073.026-.015.048-.029.073-.042-.019-.043-.069-.027-.058-.069-.016.069-.142.107-.185.169-.035-.012-.007-.019-.032-.05-.04.023-.071.004-.112.036.009.048.042-.014.054.036-.085.035-.18.019-.214-.021-.033.054-.066.04-.057.103-.099-.056-.197.048-.344.079-.003.047.014.106-.006.157-.115-.057-.224.125-.328.048-.025.048.044.059.012.098-.048-.031-.067.05-.113-.016.217-.257.524-.429.821-.648-.044.028-.072-.019-.104-.037-.037.03-.056.063-.076.097-.201-.014-.372.287-.573.288.019-.091.167-.139.257-.193-.042-.046-.108.004-.161.016-.096.147-.461.324-.62.538-.25.127-.465.401-.614.656-.028.03-.04-.007-.065.006.024.236-.257.336-.286.552-.274.307-.274.729-.536 1.001.011.094.044.192-.085.256-.084.254-.056.53-.197.772.028.032.014.05.034.082-.124.305.048.684-.044.999.052.082.071.155-.008.209.115.206.115.471.144.695-.098-.233-.214-.456-.126-.639-.02-.031-.042-.025-.058-.067a2.386 2.386 0 00-.05-.546c.058-.135 0-.294-.022-.448.031-.046.026-.099.044-.147-.044-.15.008-.372.081-.527.002-.261.087-.498.252-.72-.028-.035.005-.056-.022-.088.177-.519.454-.975.776-1.437.057-.025.052-.062.103-.084-.007-.122.119-.253.231-.314-.001-.095.085-.109.141-.155.075-.067.127-.179.191-.239.14-.133.34-.216.456-.369.024.008.057-.008.084-.001.002-.027-.024-.064.018-.078.247-.14.46-.307.689-.482-.166-.133-.35.149-.52.121-.002.023.018.055-.026.068-.025.001-.041-.012-.059-.035-.054.048-.068.053-.127.065.035.069-.065.057-.114.121-.018-.008-.035-.027-.05-.055-.008.147-.273.258-.407.306.036.035.022.059.002.083-.135-.094-.356.224-.382.015.022-.013.03.035.059.016-.015-.046-.003-.058.045-.063-.022-.029-.041-.06-.013-.077.313-.188.55-.501.969-.69a.17.17 0 01.153-.111c-.002-.068.11-.205.193-.152-.008-.021-.034-.048-.018-.059.291-.135.481-.305.843-.456-.038-.037-.013-.061-.042-.092-.082.048-.126-.023-.163.065.032.054.091-.012.133.022-.064.047-.143.032-.215.013.028.026.024.046-.013.06-.011-.016.005-.029-.011-.045-.048.064-.089.032-.146.04-.109.111-.302.159-.472.227-.014-.027.034-.038.013-.062-.059.009-.119.024-.172.023-.026-.039-.02-.057-.018-.107-.199-.025-.306.127-.496.188.038.039.022.068-.013.092-.051.031-.082-.031-.129-.021-.05.053-.085.049-.121.111-.051.021-.09.011-.121-.031-.038-.134.117-.112.171-.136.04-.02.179-.23.299-.204.166-.142.349-.28.561-.333-.011-.021-.034-.042-.02-.058.119-.001.201-.098.315-.126-.147-.072-.295.113-.44.087-.031-.03.061-.026.034-.056-.056.004-.108.063-.125.075.024-.009.041.004.055.036-.011.007-.009.017-.017.028-.113.03-.265.102-.349.15-.056-.014.006-.045.006-.072-.223.084-.375.163-.586.262.048.054-.033.082-.08.116-.017-.032-.039-.048-.068-.024-.024.021.043.065.002.084-.346.004-.503.377-.764.527a.392.392 0 01-.265.285c-.012.086-.177.139-.141.24-.096.059-.159.186-.26.129.054-.208.317-.318.393-.518.281-.217.379-.467.687-.647.007-.101.129-.22.233-.231.108-.124.23-.255.385-.257-.025-.126.235-.071.177-.181-.117.002-.291.164-.404.2-.016-.136.172-.109.128-.232-.165.157-.445.183-.561.384-.117-.032-.138.186-.288.197 0-.107.101-.174.197-.208.143-.19.486-.456.765-.546.024-.065.095-.064.123-.108-.064.01-.157.022-.201.09-.251-.001-.642.308-.789.457.018-.007.032-.003.046.02-.067.045-.131.086-.187.084-.347.331-.64.675-.99.957-.124.298-.454.603-.594.933-.066-.009-.051.066-.116.09.033.088-.056.177-.143.208-.058.177-.239.33-.275.514-.034.013-.048-.054-.084-.02-.033.06.045.091.058.171-.11.087-.105.198-.175.295-.032.039-.036-.036-.065.006-.031.041.025.056.023.09-.143.092-.117.308-.221.445-.039-.111-.032-.205.066-.281C.789 8.454.759 8.41.774 8.38c.026 0 .039-.007.049-.03.002-.023-.017-.057-.015-.078.174-.362.33-.73.458-1.101.176-.207.293-.515.529-.741.022-.058-.008-.126.042-.178.047-.013.028-.019.072-.045.003-.035-.003-.073.025-.099.272-.268.43-.674.795-.888.026-.073.1-.173.201-.196.252-.242.437-.489.79-.678.443-.486 1.093-.69 1.67-.989-.067-.079-.117.057-.192.02.013.019.004.035-.023.045-.266.008-.623.145-.838.3-.231.007-.395.26-.573.256-.035.073-.044.064-.127.096a2.67 2.67 0 01-.594.471c-.035.016.018.053-.025.069-.643.371-.976.946-1.44 1.44-.007.025.03.063 0 .086-.166.189-.289.387-.477.571.016.033.003.057 0 .084a.561.561 0 00-.222.41c-.046.073-.146.135-.095.23-.139.186-.242.316-.312.538-.023.013-.042.028-.064.038-.012.037.023.048.046.073-.041.02-.039.053-.091.074-.027.148-.011.305-.121.435-.011.072.038.161-.053.218.012.194.002.385-.098.556.052.264-.099.48-.047.747-.015.006-.026-.007-.044.01.062.159-.034.329.05.462-.097.146.08.351-.035.518.128.256.081.562.11.836a.999.999 0 01.086.44c.118.258.138.598.254.899-.034.022-.038-.006-.05.031.027.042.068.017.091.062-.01.163.173.383.171.577.084.092.213.31.222.44.269.321.258.803.534 1.146a.04.04 0 01-.022.047c.106.057.231.2.259.334.017.022.047-.018.062.015-.018.111.281.189.221.356.09.041.117.062.17.166.133.051.241.16.289.299.273.219.492.62.778.818.049.126.19.124.186.241.193.095.361.36.506.435a.083.083 0 00-.022.046c.159-.025.259.189.391.271-.016.016.012.041-.034.055.157.046.221.171.344.247.476.27 1.048.614 1.317.724.153.051.414.205.57.254.302.076.643.231.979.311.338.079.669.083.948.147.473-.009.713.071.725.074.617.031 1.13.252 1.336.482.539.427 1.291 1.463 1.402 1.628 1.531 2.581 2.696 6.436 3.982 11.657.015.03-.019.049-.019.079.079.006.018.13.095.179-.024.153.142.382.052.547.104.061.052.18.133.293-.077.076.1.251.046.381.094.152.06.275.113.422-.021.014-.037.026-.043.045.089.158.129.428.179.64-.057.054-.061.119.004.203-.014.012-.009.032-.041.04a.855.855 0 01.091.558c.02.03.044.022.056.067-.012.108.06.238.008.335.036.068.057.134.01.184.03.043.047.037.055.084a.538.538 0 01-.063.039c.027.098.151.131.06.235.085.078.117.22.067.298.037.053.066.055.011.098.019.031.043.024.057.067-.029.2.221.489.123.691.04.07.08.143.038.195.022.047.068-.011.084.053.016.033-.032.048-.041.074.11.108.053.205.077.311.079.129.076.244.145.369l-.05.033c.066.031.018.066.018.108.074-.014.046.075.048.105.08-.012.024.105.04.148.046.046.088.117.033.164.111.236.188.553.191.77.021.053.051.04.074.092-.045.133.073.246.131.376.033.072.03.211.067.3.038.08.072.124.031.183.032-.004.057.035.079.076-.019.024-.017.049-.058.067.145.043.044.617.193.704-.052.061.044.108.081.154.009.023-.019.032-.024.05.219.359.342.962.567 1.266-.048.011.008.048-.008.07.055.002.139.139.116.183.078.03.109.076.156.144-.002.026-.035.048-.039.074.083-.04.158.093.134.159.214.123.262.454.46.546a.217.217 0 01.016.109c.185.18.37.345.521.564.078.04.184.187.176.229.217.074.366.422.581.494.08.197.298.177.319.348.157.078.412.167.473.349.266.12.511.297.739.445.023.029-.007.042.025.069a.223.223 0 01.291.122c.185.02.461.038.623.15.175-.016.174.027.321.048.188.029.166.047.193.049.18.042.316.004.456.097.122-.042.257.129.339.149.089.022.194-.103.187-.02.194-.041.351.061.529.082a.113.113 0 00.054-.048c.167.037.352-.002.509.074.251-.091.438.023.683-.041.136.092.322-.051.444.084.032-.016.026-.042.068-.059.387-.039.723-.084 1.11-.265.151.033.294-.073.449-.076.141-.148.354-.028.487-.15.103.06.183-.081.278-.017.067-.066.167-.064.242-.051.125-.103.264-.06.391-.139.023.021.045.015.063.044.16-.074.222-.076.378-.146.016.042.181-.055.194-.011.058-.052.028-.144.089-.095.188-.066.441-.153.617-.023.043-.034.162-.041.209-.032.029.034.366.034.482.129.325.117.299.134.498.289.034.022.303.276.324.299.316.195.179.156.341.494.12.135.192.352.196.518.169.098.074.438.137.639-.047.012-.019.039-.034.054.02.034.04.065.059.099-.05.198.095.444-.018.626.066.041.076.241.01.318.113.25-.012.529.034.797-.02.031-.008.072-.053.102.046.078.017.138-.056.187.073.106-.034.174-.098.248-.061.159-.152.457-.337.585.01.11-.035.255-.155.302.02.039.018.076-.003.105-.094.043-.326.639-.357.707.02.019-.256.522-.256.522-.077.025-.192.385-.256.361a.575.575 0 01-.002.248c-.044-.019-.103.026-.093.074.016-.023.069-.009.039.01-.01.049-.049-.01-.093.041-.038.126-.11.246-.14.377-.075.008-.083 0-.131.063.015.033.04.013.051.052-.215.229-.03.51-.253.729.031.074.142.135.049.178.02.111-.008.179-.108.238.034.278-.193.495-.168.769-.141.15.006.344-.115.493a.568.568 0 01-.112.394c.06.153.164.319.046.432.048.182.019.348.03.519.012.049.016.097.025.145.043.691.037 1.363.192 1.928.017.016.065.002.069.039-.001.035-.054.053-.026.084.217.67.385 1.323.756 1.831.023.007.072-.019.072.012-.033.147.18.159.175.325.127.047.188.165.302.227-.011.097.094.181.187.215.166.239.343.464.53.681.008.006.017.013.026.017.254.198.357.393.597.585.582.407.763.831 1.405 1.223.83.438 1.682.837 2.522 1.251.05.017.099.032.149.051-.075-.057-.183-.076-.243-.145-.059.018-.131.01-.127-.078.109.027.2.033.226.102-.003-.026.012-.032.042-.03.029-.004-.008.064.042.041.207-.059.229.139.421.137.033-.012-.048-.039-.002-.068.133.068.292.111.438.165.02.055.058.098.108.124.013.002.029.009.04.01.028-.058.13-.043.169-.092.256.154.709.183 1.037.287a73.86 73.86 0 001.595.201c-.09-.074-.265-.07-.397-.104.01-.05-.023-.052-.018-.099a5.721 5.721 0 00-.46-.067c-.044.053.091.075.045.123-.177.026-.222-.085-.284-.185-.048.102-.098.159-.205.119.002-.068.047-.092.069-.141-.508-.13-1.01-.254-1.488-.476l-.113.005c-.372-.265-.869-.4-1.23-.679.228.05.389.238.632.227.09.125.263.162.435.167.167.096.36.245.619.2.034.097.201.087.309.113.071.018.167.108.194.022-.117-.075-.422-.065-.52-.189.054-.011.037-.091.053-.1.199.044.368.152.572.089.026.104.109.057.17.067.065.008.11.049.152.047.08 0 .203-.103.225.033.01-.043.026-.006.068-.016.004.041-.052.016-.054.045.274.067.602.113.851.164.038-.084.072-.138.091-.211.078.049.144.112.266.074.017.047-.047.093.031.083.033-.012-.028-.036-.014-.069.126-.063.289.047.402-.015.001-.079-.065.001-.073-.067.047-.035.187.008.219-.062-.115.016-.164.006-.319-.002a.07.07 0 01-.138.018c.031.027.06-.022.097-.032-.066 0-.208-.086-.252-.004.064.006.069 0 .127.022-.047.037.007.095-.051.127-.027-.02 0-.096-.059-.082-.033.021.027.042-.011.056-.07-.058-.111-.085-.213-.062-.02-.075 0-.082.008-.153a.393.393 0 01-.205-.062c-.05-.014-.012.046-.058.029-.016-.014-.05-.014-.084-.012-.013-.025-.065-.015-.071-.049-.08.018-.094-.033-.166-.023-.113-.146-.547-.064-.551-.244.116.122.352.027.464.148.052-.103.225.03.303-.011-.11-.035-.243-.1-.333-.041.012-.053-.033-.044-.044-.069-.175.016-.279-.11-.392-.042-.14-.19-.462-.118-.646-.241-.043-.017-.038.006-.096.004.002-.056-.066-.035-.073-.08-.171-.066-.361-.102-.518-.177a.528.528 0 01-.173-.132c.251.058.482.135.687.239.048.004.051-.028.098-.018.075.04.161.109.267.074.343.145.772.199 1.149.307.034 0 .039-.022.066-.031a.431.431 0 00.323.072c.149.094.352.058.516.082.027 0 .061.031.087.038.038.006.078-.024.108-.02.036.003 0 .043.043.041.053-.004.098-.026.138-.045.133.088.319.089.49.106.173.021.382.026.556.009.195.052.374.035.627.047.02-.006.008-.043.053-.03.205.082.563-.03.68-.009.011-.049.108-.025.095-.099-.446.026-.933-.056-1.278 0 .002-.03-.014-.042-.043-.038-.481-.012-.939-.082-1.307-.078-.004-.023 0-.051-.03-.043-.108.006-.112-.052-.236-.02-.071-.086-.173-.05-.28-.017-.008-.077-.091-.005-.112-.079a.44.44 0 00-.153.018c-.056-.049-.145-.111-.24-.072-.081-.091-.272-.099-.361-.045-.126-.114-.283-.037-.38-.18-.003-.027.052.018.068-.016-.01-.05-.097-.031-.059-.097.054.002.061.059.113.066.013-.042.034-.068.083-.043.035.034.005.083-.027.098.067.006.112-.029.137-.089-.233-.07-.463-.152-.699-.213-.344-.088-.673-.202-1.01-.296-.056-.067-.107-.139-.227-.131-.009-.147-.257-.107-.245-.23.088.011.158.043.186.121.043.018.005-.044.053-.029.092.13.275.086.381.208.035 0 .069 0 .086-.019.208.129.452.213.743.254.312.141.714.18 1.067.282.002-.03-.028-.097.02-.085.055.186.251.108.351.07.006.03-.018.03-.025.044.066.016.061.022.139.022.031-.085.067-.089.133-.13.111.032.155.106.176.203.001-.021.031-.013.053-.017.008-.054-.066-.098-.032-.137.061.03.183-.008.209.065.034-.06.141-.052.206-.08-.047-.1-.244-.104-.321-.057-.114-.1-.294-.043-.381-.18.076-.032.201-.026.198.077.039-.018.043-.067.093-.075.101.057.219.008.294.075-.009.027-.083-.006-.068.041.141-.032.273-.122.431-.026.034-.019-.014-.084.01-.084.044 0 .174-.01.237.018-.002.039-.022.058-.024.098.072.052.199-.061.224.061.085-.063.187-.052.278.018.089-.086.211.004.345-.039-.016-.047-.127.004-.14-.049.106-.05.261.044.317-.069-.129-.026-.195-.104-.337-.087-.013.03.042.047.002.059-.119.01-.139-.088-.235-.031.029-.089-.095-.045-.14-.028-.039 0-.019-.061-.071-.053-.42-.067-.79-.134-1.273-.203.009.049.096.09.063.136-.136-.03-.287-.038-.365-.124-.057-.013-.041.033-.084.029-.269-.044-.558-.152-.812-.248-.226.004-.42-.132-.538-.287.149.012.267.084.374 0 .134.046.245.052.352.141.082-.089.232.109.307-.011-.117-.028-.205-.138-.34-.1-.1-.119-.343-.046-.41-.221-.341-.104-.676-.281-1.055-.394-.046-.067-.123-.106-.185-.161-.186.017-.283-.158-.369-.238.401.16.788.351 1.234.375-.042-.063.071-.029.081-.086.317.201.681.146 1.037.297.024-.024.043-.061.109-.044.016.062.103.052.131.104-.034.088.016.137.086.151.022-.012-.004-.067.025-.071l.002.057c.068-.032.128-.1.18-.021-.018.037-.058-.022-.068.015.054.038.121.02.18-.004.094.078.307.193.418.082-.008.04.024.04.018.082.137-.013.289.081.431.01.137.108.459.015.643.106.063-.015.071-.073.135-.089.015.054.05.028.124.038.073.051.133.106.242.117.04-.051.17-.018.191-.094.078.081.236-.013.296.077.228-.066.47-.034.733-.042.038-.05.033-.088.065-.126-.007.076.056.119.128.148.004-.129.107-.158.188-.215-.079.049-.336-.023-.413.082-.177-.061-.462-.05-.665-.015-.126-.008-.228-.063-.353-.071-.141-.008-.294.043-.441.029-.022-.002-.035-.037-.057-.039-.03-.003-.062.02-.095.014-.056-.004-.113-.038-.171-.048-.202-.034-.344-.004-.473-.053-.038 0-.026.046-.082.031 0-.02.035-.012.026-.042-.42-.069-.851-.085-1.176-.265.11.006.188.01.291-.01.041.073.15.073.24.088.02-.074-.063-.045-.058-.108a1.56 1.56 0 01-.589-.148c-.085.015-.152-.029-.208-.005-.055-.077-.169-.09-.296-.086-.039-.037-.098-.048-.114-.107-.09.007-.124-.05-.211-.048-.084-.104-.272-.119-.42-.167-.097-.03-.249-.067-.244-.173.092-.003.086.065.182.023.047.128.218.118.351.157a.194.194 0 00.039-.155c-.04-.011-.07-.03-.112-.04-.034-.004-.031.086-.055.046-.005-.134-.251-.113-.315-.225.104.01.165.062.28.058.005-.043-.033-.052.01-.069.336.081.655.248 1.037.243-.106-.106-.295-.091-.409-.154-.039.011-.056.042-.123.033-.038-.02-.052-.069-.072-.109-.174-.024-.261-.144-.462-.137-.301-.186-.727-.237-.948-.507.406.061.797.431 1.207.372.085.144.32.057.462.15-.065-.07-.062-.141-.131-.189-.017.036.041.058.001.068-.051 0-.087-.066-.059-.108-.149-.004-.219-.099-.377-.097a.304.304 0 00-.282-.114c-.047-.119-.239-.08-.272-.215.071-.008.119.06.182.079.063.015.133-.015.18.008.043.015.069.076.117.093.027.006.073-.009.111-.005.146.017.241.152.363.058.059.114.279.143.364.082.002.063.059.063.086.094.153-.082.239.111.417.055.038.017.057.056.101.066.329-.008.667.094.948.092.185.137.549.109.737.087.038.004.048.044.099.036.177-.04.356.023.542.023-.008-.031.023-.031.012-.07-.067-.029-.069-.045-.143-.065-.015.049.044.011.031.055-.031-.027-.114.033-.139-.021.01-.023.068-.004.055-.045-.276 0-.524-.113-.794-.124-.002-.025-.007-.042-.019-.056-.086.054-.226-.041-.143-.121.091.148.294.061.404.084.007-.021-.017-.07.013-.07.09.022.085.022.138-.032.036.028-.004.073.045.067.011-.065.138-.019.166-.004.151-.105.422.031.653.018-.023-.053.06-.004.038-.057a7.704 7.704 0 01-1.436-.213c-.008-.025-.039-.023-.03-.07-.077.02-.095-.022-.155-.022.018-.017.018-.053-.002-.068-.058.012-.09-.008-.138-.01-.022.061.078-.004.057.054-.035-.015-.084-.017-.126-.023-.017-.035.04-.062-.016-.055-.405-.091-.764-.236-1.164-.333-.018-.017-.018-.057-.056-.055-.274-.121-.556-.236-.818-.371.008-.076-.11-.176-.008-.211.031.002.032.033.031.068.273.09.536.341.844.305.003.063.077.063.145.064a.73.73 0 01-.088-.07 5.743 5.743 0 01-1.466-.679 4.68 4.68 0 01-1.04-.931c-1.002-.657-1.42-1.966-1.331-3.128a1.94 1.94 0 01.162-.653 1.33 1.33 0 01.133-.376c.06-.288.161-.569.327-.813.083-.213.189-.412.321-.599 1.026-2.088 1.687-3.907 1.655-6.303 0-.115.006-.221.018-.329-.004-.008-.004-.017-.004-.027a2.079 2.079 0 01-.168-.977c.018-.173.027-.347.032-.521a2.098 2.098 0 01-.117-.244.113.113 0 01-.011.022c-.057-.053-.044-.111-.041-.172-.014-.041-.034-.081-.042-.125-.003-.002-.003-.004-.005-.004l.001-.006a5.628 5.628 0 00-.165-.547 2.682 2.682 0 01-.499-.945c-.011-.006-.017-.016-.025-.02-.052-.223-.34-.374-.296-.585-.097.006-.111-.102-.174-.2-.022.008-.054.056-.068.027-.061-.052.041-.119-.069-.162.045-.033.026-.06.079-.064-.23-.195-.388-.519-.632-.58-.037-.172-.225-.209-.324-.326-.034-.042-.038-.104-.072-.143-.031-.035-.083-.046-.119-.08-.243-.213-.526-.402-.795-.595.03.048-.018.072-.036.105-.077-.035-.048-.125-.06-.181-.101-.07-.199-.157-.306-.187-.325-.322-.78-.472-1.154-.733-.012.006-.026.017-.032.004-.027.028-.072.048-.05.085.01.056.091.014.108.12a.362.362 0 01-.058.068.333.333 0 01-.2-.098c.056-.022.044-.014.087-.055.02-.05-.009-.111-.022-.172-.148-.002-.292-.231-.435-.123-.188-.18-.575-.253-.806-.283-.149-.014-.33-.084-.466-.116-.074-.019-.151.002-.229-.013-.111-.017-.213-.09-.322-.105-.115-.014-.244.023-.362.021-.219-.004-.446-.019-.659.035-.018-.041-.052-.01-.076-.039-.249.059-.554.059-.82.135-.121.038-.252.061-.325.135-.133-.045-.334.029-.474.142-.356.059-.664.321-1.012.371-.153.161-.354.084-.511.251-.031 0-.056-.032-.088-.032-.036.03-.048.067-.095.097-.21-.013-.38.177-.638.122-.053.026-.061.058-.083.087-.12-.05-.278.054-.388-.048-.106.088-.183.035-.261-.008-.135.027-.252-.025-.372-.075-.072.081-.2.03-.28-.014.014-.016.007-.038-.006-.064-.088-.038-.205.004-.267-.072-.053-.067-.163-.091-.248-.154-.076-.053-.132-.137-.237-.158-.145-.11-.269-.303-.428-.385-.049-.17-.195-.301-.279-.455-.413-.722-.606-1.489-.847-2.236-.071-.442-.278-.898-.372-1.336.014-.008.036-.018.029-.035-.127-.129-.075-.358-.182-.483.052-.205-.055-.447-.095-.673a.398.398 0 00.038-.024 1.07 1.07 0 01-.116-.594c-.015.008-.031.014-.039-.009-.097-.597-.146-1.217-.233-1.812-.019-.048-.059-.002-.079-.048.079-.054.002-.163 0-.245 0-.013.037-.038.036-.052-.005-.025-.03-.074-.036-.115-.028-.114-.037-.281-.124-.363.007-.063.006-.192-.061-.207a.303.303 0 00-.008.211c-.044.049-.133.04-.142.07.06-.006 0 .049.026.07.034.014.07-.002.102.024-.017.058-.068.066-.128.097.086.058-.047.145.08.239-.04.032-.058.112-.099.112-.07-.291-.144-.519-.212-.806.042-.048.061.002.096-.005-.008-.038.03-.065.062-.094.03.046.036.086.046.127.074-.055.092-.143.145-.178-.808-2.893-1.822-6.167-2.661-7.749z" fill="#6BA3CB"/></g><path fill-rule="evenodd" clip-rule="evenodd" d="M11.948 2.209c-.044-.033-.118.042-.052.069.014-.041.042-.022.052-.069z" fill="#448C37"/><path fill-rule="evenodd" clip-rule="evenodd" d="M11.895 2.279c-.065-.028.009-.103.053-.07-.01.047-.038.028-.053.07z" fill="#448C37"/><path fill-rule="evenodd" clip-rule="evenodd" d="M85.788 34.555h-5.553v7.743h5.553c2.499 0 4.201-1.424 4.201-3.854 0-2.429-1.702-3.889-4.201-3.889zm4.339 21.35l-5.208-10.414h-4.684v10.414h-3.75V31.188h9.58c4.688 0 7.672 3.02 7.672 7.221 0 3.539-2.152 5.797-4.929 6.561l5.693 10.935h-4.374zM108.145 43.27c-.554-1.322-1.804-2.222-3.471-2.222s-2.951.9-3.507 2.222c-.346.796-.416 1.317-.451 2.395h7.915c-.034-1.078-.138-1.599-.486-2.395zm-7.429 4.86c0 3.019 1.597 4.929 4.479 4.929 1.979 0 3.02-.556 4.269-1.806l2.257 2.118c-1.804 1.804-3.506 2.742-6.596 2.742-4.409 0-7.915-2.326-7.915-9.026 0-5.693 2.952-8.989 7.464-8.989 4.722 0 7.464 3.469 7.464 8.468v1.564h-11.422zM123.143 41.255c-3.195 0-3.611 2.742-3.611 5.519 0 2.776.416 5.519 3.611 5.519 3.193 0 3.575-2.743 3.575-5.519 0-2.777-.382-5.519-3.575-5.519zm-.416 21.974c-2.674 0-4.374-.623-6.213-2.326l2.255-2.256c1.111 1.041 2.083 1.561 3.818 1.561 2.986 0 4.131-2.115 4.131-4.477v-2.255c-1.284 1.527-2.741 2.013-4.547 2.013-1.77 0-3.228-.594-4.2-1.563-1.701-1.699-1.979-4.167-1.979-7.152 0-2.984.278-5.449 1.979-7.151.972-.972 2.464-1.525 4.234-1.525 1.876 0 3.299.485 4.616 2.081v-1.873h3.438v17.495c0 4.303-2.846 7.428-7.532 7.428zM135.885 55.906h3.541v-17.6h-3.541v17.6zm-.104-21.074h3.749v-3.747h-3.749v3.747zM154.146 42.261c-.66-.658-1.564-1.006-2.604-1.006-1.042 0-1.909.348-2.569 1.006-1.076 1.079-1.217 2.919-1.217 4.826 0 1.909.141 3.75 1.217 4.824.66.661 1.527 1.044 2.569 1.044 1.04 0 1.944-.383 2.604-1.044 1.076-1.074 1.214-2.915 1.214-4.824 0-1.907-.138-3.747-1.214-4.826zm2.673 11.769c-1.146 1.182-2.883 2.083-5.277 2.083-2.396 0-4.098-.901-5.244-2.083-1.665-1.737-2.081-3.959-2.081-6.943 0-2.951.416-5.172 2.081-6.908 1.146-1.18 2.848-2.081 5.244-2.081 2.394 0 4.131.901 5.277 2.081 1.664 1.736 2.082 3.957 2.082 6.908 0 2.984-.418 5.206-2.082 6.943zM174.419 55.905V45.18c0-2.745-1.563-3.925-3.541-3.925-1.979 0-3.645 1.217-3.645 3.925v10.725h-3.54V38.306h3.472v1.769c1.213-1.319 2.916-1.977 4.685-1.977 1.805 0 3.296.588 4.338 1.594 1.355 1.321 1.773 2.988 1.773 4.963v11.25h-3.542zM205.94 55.905V45.108h-10.033v10.797h-3.746V31.188h3.746v10.553h10.033V31.188h3.75v24.717h-3.75zM225.14 48.13h-4.131c-2.084 0-3.16.935-3.16 2.534 0 1.596 1.007 2.499 3.23 2.499 1.354 0 2.36-.104 3.297-1.008.52-.521.764-1.353.764-2.605v-1.42zm.068 7.775v-1.598c-1.284 1.286-2.498 1.806-4.686 1.806-2.187 0-3.644-.52-4.72-1.598-.903-.936-1.389-2.288-1.389-3.783 0-2.949 2.049-5.067 6.076-5.067h4.651v-1.251c0-2.221-1.113-3.297-3.853-3.297-1.944 0-2.882.45-3.854 1.7l-2.325-2.186c1.665-1.945 3.402-2.533 6.317-2.533 4.824 0 7.256 2.046 7.256 6.038v11.769h-3.473zM238.853 55.905c-3.368 0-4.827-2.258-4.827-4.861V31.188h3.541v19.649c0 1.351.487 2.049 1.911 2.049h1.562v3.019h-2.187zM249.649 55.905c-3.367 0-4.826-2.258-4.826-4.861V31.188h3.541v19.649c0 1.351.487 2.049 1.91 2.049h1.563v3.019h-2.188zM265.133 48.13h-4.13c-2.086 0-3.162.935-3.162 2.534 0 1.596 1.009 2.499 3.229 2.499 1.356 0 2.361-.104 3.3-1.008.52-.521.763-1.353.763-2.605v-1.42zm.068 7.775v-1.598c-1.284 1.286-2.499 1.806-4.684 1.806-2.19 0-3.647-.52-4.723-1.598-.902-.936-1.388-2.288-1.388-3.783 0-2.949 2.048-5.067 6.075-5.067h4.652v-1.251c0-2.221-1.112-3.297-3.855-3.297-1.943 0-2.881.45-3.852 1.7l-2.326-2.186c1.667-1.945 3.401-2.533 6.317-2.533 4.826 0 7.256 2.046 7.256 6.038v11.769h-3.472zM284.851 55.905V45.18c0-2.745-1.563-3.925-3.54-3.925-1.981 0-3.646 1.217-3.646 3.925v10.725h-3.542V38.306h3.472v1.769c1.216-1.319 2.916-1.977 4.687-1.977 1.805 0 3.297.588 4.34 1.594 1.354 1.321 1.77 2.988 1.77 4.963v11.25h-3.541zM300.229 41.255c-3.193 0-3.679 2.707-3.679 5.832s.486 5.868 3.679 5.868c3.196 0 3.645-2.743 3.645-5.868 0-3.125-.449-5.832-3.645-5.832zm3.716 14.65V54.03c-1.32 1.598-2.742 2.083-4.651 2.083-1.772 0-3.334-.59-4.306-1.561-1.768-1.77-1.977-4.793-1.977-7.465 0-2.673.209-5.658 1.977-7.43.972-.971 2.5-1.559 4.27-1.559 1.876 0 3.334.451 4.616 1.977v-8.887h3.543v24.717h-3.472z" fill="#1A1919"/></svg>