<?xml version="1.0" encoding="utf-8"?><svg xmlns="http://www.w3.org/2000/svg" xmlns:xlink="http://www.w3.org/1999/xlink"><symbol viewBox="0 0 1000 1000" preserveAspectRatio="none" id="apple" xmlns="http://www.w3.org/2000/svg"><path d="M495.6 225.8C491.2 183.1 474.8 26.5 708.4 2c0 0 23.8-4.5 26.8.7 1.5 2.5.2 9.9-1.4 18-12.6 64.4-31.1 170.9-206.6 220.5 0 0-16.7 5.2-25.2 3.7-5-.8-5.7-12.3-6.4-19.1m377.8 120.5c-69.6-111-195.6-103.8-262.5-66-38.4 21.7-77.4 28.1-111.3 27.8-33.9.3-72.9-6.1-111.3-27.8-66.9-37.8-192.9-45-262.5 66C21.3 512.8 90.3 820.7 308.6 962c45.6 29.5 88.5 47.6 128.6 29 26-12.2 52.4-33.3 112.8-2.2 37.8 19.5 97.8.9 140.6-26.8 218.3-141.3 287.3-449.2 182.8-615.7" fill="#010202" fill-rule="evenodd"/></symbol><symbol viewBox="0 0 1000 1000" id="sun" xmlns="http://www.w3.org/2000/svg"><title/><path d="M499.5 842.8c-188.9 0-342.6-153.9-342.6-342.9S310.6 157 499.5 157c188.9 0 342.6 153.8 342.6 342.9S688.4 842.8 499.5 842.8zm385.8-342.9l111.2-124.8a9.8 9.8 0 0 0 2.2-9.1 9.8 9.8 0 0 0-6.4-6.7l-158.7-52.4 34-163.8a9.8 9.8 0 0 0-2.7-8.9c-2.3-2.4-5.8-3.4-8.9-2.7l-163.6 34.1L640 6.7a9.8 9.8 0 0 0-6.7-6.4 9.7 9.7 0 0 0-9.1 2.2L499.5 113.9 374.8 2.5a9.8 9.8 0 0 0-9-2.2 9.8 9.8 0 0 0-6.8 6.4l-52.4 158.9L143 131.5a9.8 9.8 0 0 0-8.9 2.7 9.8 9.8 0 0 0-2.7 8.9l34.1 163.8L6.7 359.3A9.8 9.8 0 0 0 .3 366a9.8 9.8 0 0 0 2.2 9.1l111.3 124.8L2.5 624.7a9.8 9.8 0 0 0-2.2 9 9.8 9.8 0 0 0 6.4 6.8l158.8 52.4-34.1 163.8a9.8 9.8 0 0 0 2.7 8.9c2.3 2.3 5.8 3.3 8.9 2.6l163.6-34L359 993a9.8 9.8 0 0 0 15.8 4.2l124.7-111.3 124.7 111.3a9.7 9.7 0 0 0 9.1 2.2 9.8 9.8 0 0 0 6.7-6.4l52.4-158.8 163.6 34a10 10 0 0 0 8.9-2.6 9.7 9.7 0 0 0 2.7-9l-34-163.7 158.7-52.4a9.8 9.8 0 0 0 6.4-6.8 9.8 9.8 0 0 0-2.2-9L885.3 499.9zM499.5 193.4c-168.9 0-306.3 137.5-306.3 306.5s137.4 306.5 306.3 306.5 306.3-137.5 306.3-306.5-137.4-306.5-306.3-306.5" fill="#010202" fill-rule="evenodd"/></symbol><symbol viewBox="0 0 1000 1000" id="twitter-square" xmlns="http://www.w3.org/2000/svg"><path d="M791.7 0H208.3A208.3 208.3 0 0 0 0 208.3v583.4A208.3 208.3 0 0 0 208.3 1000h583.4A208.3 208.3 0 0 0 1000 791.7V208.3A208.3 208.3 0 0 0 791.7 0zm-5.9 384.9c8.8 192.4-134.7 406.9-388.7 406.9a386.9 386.9 0 0 1-209.6-61.5A275.2 275.2 0 0 0 390 673.6a136.9 136.9 0 0 1-127.8-95 137.5 137.5 0 0 0 61.8-2.3c-65.9-13.2-111.2-72.5-109.8-135.8 18.5 10.3 39.6 16.4 62 17.1A137.1 137.1 0 0 1 233.8 275a388.3 388.3 0 0 0 282 142.9 136.9 136.9 0 0 1 233-124.7 274.3 274.3 0 0 0 87-33.2 137.3 137.3 0 0 1-60.2 75.7 274.1 274.1 0 0 0 78.6-21.5 277.5 277.5 0 0 1-68.4 70.7z"/></symbol><symbol viewBox="0 0 1000 1000" id="union-jack" xmlns="http://www.w3.org/2000/svg"><title/><path d="M112.1 805.5h304.7V619.3L112.1 805.5zm471.4 0h304.8L583.5 619.3v186.2zM.3 601.9v135.3l221.5-135.3H.3zm333.2 0L.3 805.5h74.5l333.3-203.6h-74.6zm333.3 0L1000 805.5V760L741.3 601.9h-74.5zm111.8 0L1000 737.2V601.9H778.5zM.3 398.2h221.5L.3 262.9v135.3zm778.2 0H1000V262.9L778.5 398.2zM.3 194.6v45.5L259 398.2h74.5L.3 194.6zm111.8 0l304.7 186.2V194.6H112.1zm338.1 0V439H.3v122.2h449.9v244.3h99.9V561.1H1000V439H550.1V194.6h-99.9zm133.3 0v186.2l304.8-186.2H583.5zm342 0L592.3 398.2h74.5L1000 194.6h-74.5z" fill-rule="evenodd"/></symbol><symbol viewBox="0 0 1000 1000" id="up" xmlns="http://www.w3.org/2000/svg"><title/><path d="M1000 500c0 276.1-223.9 500-500 500S0 776.1 0 500 223.9 0 500 0s500 223.9 500 500zm-791.7 50.7l72.9 74.3L500 406.2 718.7 625l73-74.3L500 260.4 208.3 550.8v-.1z" fill-rule="evenodd"/></symbol><symbol viewBox="0 0 1000 1000" id="usb" xmlns="http://www.w3.org/2000/svg"><title/><path d="M790 223.7H660.5a9.2 9.2 0 0 0-9.3 9.2v129.5a9.2 9.2 0 0 0 9.3 9.2h30c-.3 19.7-5.4 36.1-15.7 50.1-11.1 15.2-25.1 29.1-41.6 41.3-17.1 12.8-35.6 24.9-55.1 36.1-14.4 8.3-28.2 17.3-41.1 26.9V182.2h51.8a9.3 9.3 0 0 0 7.9-4.5 9.3 9.3 0 0 0 .3-9.1L509.9 4.5c-3.2-6-13.1-6-16.3 0l-87.1 164.1a9.3 9.3 0 0 0 .2 9.1 9.3 9.3 0 0 0 8 4.5h51.8v473.5c-12.6-10.8-26-21.4-40-31.6-19.3-14.1-37.8-29.3-54.9-45-16.7-15.3-30.7-32-41.7-49.6-10.6-16.8-15.9-36.2-15.9-57.7v-24.5c11.2-6 20.7-14.6 28.1-25.5 8.9-12.8 13.3-27.8 13.3-44.5 0-10.7-2-20.9-6-30.5-4.1-9.4-9.6-17.7-16.6-24.7-7-7-15.3-12.5-24.7-16.5-18.9-8-41.9-8-60.8 0-9.4 4-17.7 9.6-24.7 16.6-7 7-12.6 15.3-16.6 24.7-4 9.4-6 19.6-6 30.4 0 16.7 4.6 31.7 13.6 44.6 7.7 10.9 17.4 19.4 28.9 25.5v20.1c0 23.4 3.4 44.9 10 63.8 6.7 19.1 15.7 36.6 26.7 52.3 10.9 15.4 23.4 29.8 37.1 42.5a583.3 583.3 0 0 0 41.8 35.6c14.2 11 27.9 21.5 41.2 31.4 12.9 9.6 24.6 19.5 35 29.3 10 9.5 18.1 19.4 23.9 29.3 5.5 9.3 8.3 19.4 8.3 30.1v14.1c-8.7 3.3-16.8 7.5-24.2 12.5-9.2 6.4-17.2 14-23.8 22.8-6.7 8.8-11.9 18.6-15.7 29.2-3.9 10.8-5.9 22.4-5.9 34.5 0 14.6 2.8 28.4 8.2 41.1 5.4 12.5 13 23.6 22.4 33 9.4 9.5 20.6 17.1 33.1 22.5 12.6 5.4 26.5 8.2 41.1 8.2 14.3 0 28.1-2.8 41.1-8.2 12.9-5.4 24.3-13 33.7-22.4 9.5-9.6 17.1-20.7 22.6-33 5.7-12.8 8.5-26.6 8.5-41.2 0-11.9-2-23.5-5.8-34.5-4-10.9-9.5-20.8-16.4-29.5a112.4 112.4 0 0 0-24.6-22.5A119.1 119.1 0 0 0 537 796V648c0-11.6 2.7-21.9 8.1-30.7 5.9-9.4 13.6-18.2 23.6-26.7 10.7-9 22.3-17.2 34.7-24.6a2272.6 2272.6 0 0 0 41.3-25.3c14-8.8 28-18.5 41.8-28.9 13.7-10.4 26.3-22.5 37.4-36 11.2-13.7 20.3-29.3 26.9-46.6 6.5-16.7 9.9-36 10.2-57.5h29a9.2 9.2 0 0 0 9.3-9.3V232.9a9.2 9.2 0 0 0-9.3-9.2" fill="#010202" fill-rule="evenodd"/></symbol><symbol viewBox="0 0 1000 1000" id="user" xmlns="http://www.w3.org/2000/svg"><title/><path d="M758 452.5c-17.2-75.5-60.1-135.1-135-135.1h-7.2c-31.8 27.9-72.5 45.3-117.6 45.3-45.5 0-86.4-17.4-117.7-45.3H373c-74.4 0-117.5 51.5-135.2 135.1l-94.9 411.9c0 75.1 59.9 135.5 135.2 135.5h440.2c74.7 0 149.4-63.6 135.4-135.5L758 452.5zM647.4 150.4c0 82.3-67 149.2-149.2 149.2-82.2 0-149.2-66.9-149.2-149.2C349 68.2 416 1.1 498.2 1.1s149.2 67.1 149.2 149.3" fill="#010202" fill-rule="evenodd"/></symbol><symbol viewBox="0 0 1000 1000" id="user-o" xmlns="http://www.w3.org/2000/svg"><path d="M500 0C223.9 0 0 223.9 0 500s223.9 500 500 500 500-223.9 500-500S776.1 0 500 0zm323 762.7c-10.8-24.4-32.9-41.2-77.9-51.7-95.6-22-184.6-41.4-141.4-122.7 131-247.6 34.6-380-103.7-380-141.2 0-235.2 137.5-103.7 380 44.4 81.8-47.8 101.1-141.4 122.7-45.1 10.4-67 27.4-77.8 51.9A414.8 414.8 0 0 1 83.3 500c0-229.7 187-416.7 416.7-416.7s416.7 187 416.7 416.7A414.8 414.8 0 0 1 823 762.7z"/></symbol></svg>